<svg xmlns="http://www.w3.org/2000/svg" width="411" height="325"><defs><clipPath id="a"><path d="M0 0h411v325H0z"/></clipPath></defs><g data-name="Mesa de trabajo 1" clip-path="url(#a)"><g data-name="Background Complete"><g data-name="Group 74"><g data-name="Group 22"><path data-name="Rectangle 5" fill="#f5f5f5" d="M161.524 28.811h93.565v296.528h-93.565z"/><path data-name="Path 165" d="M208.306 28.811h46.782v295.711h-46.782Z" fill="#fff"/><path data-name="Rectangle 7" fill="#f5f5f5" d="M172.207-.3h33.04v29.111h-33.04z"/><path data-name="Rectangle 8" fill="#ebebeb" d="M197.373-.3h7.875v29.111h-7.875z"/><path data-name="Path 5" d="M153.726 28.811v-1.7h104.1v1.7" fill="#e0e0e0"/><path data-name="Rectangle 9" fill="#fafafa" d="M179.993 41.508h7.92v16.699h-7.92z"/><g data-name="Group 3"><path data-name="Path 6" d="M208.306 64.762c0 .176-10.473.319-23.39.319s-23.392-.143-23.392-.319 10.471-.319 23.392-.319 23.39.143 23.39.319Z" fill="#e0e0e0"/></g><g data-name="Group 5"><path data-name="Rectangle 10" fill="#e0e0e0" d="M227.182 41.508h7.92v16.699h-7.92z"/><g data-name="Group 4"><path data-name="Path 7" d="M255.495 64.762c0 .176-10.473.319-23.39.319s-23.392-.143-23.392-.319 10.471-.319 23.392-.319 23.39.143 23.39.319Z" fill="#e0e0e0"/></g></g><g data-name="Group 7"><path data-name="Rectangle 11" fill="#e0e0e0" d="M227.182 74.663h7.92v16.7h-7.92z"/><g data-name="Group 6"><path data-name="Path 8" d="M255.495 97.917c0 .176-10.473.319-23.39.319s-23.392-.143-23.392-.319 10.471-.319 23.392-.319 23.39.143 23.39.319Z" fill="#e0e0e0"/></g></g><g data-name="Group 9"><path data-name="Rectangle 12" fill="#e0e0e0" d="M227.182 108.819h7.92v16.7h-7.92z"/><g data-name="Group 8"><path data-name="Path 9" d="M255.495 132.073c0 .176-10.473.319-23.39.319s-23.392-.143-23.392-.319 10.471-.319 23.392-.319 23.39.146 23.39.319Z" fill="#e0e0e0"/></g></g><g data-name="Group 11"><path data-name="Rectangle 13" fill="#e0e0e0" d="M227.182 142.975h7.92v16.7h-7.92z"/><g data-name="Group 10"><path data-name="Path 10" d="M255.495 166.229c0 .176-10.473.319-23.39.319s-23.392-.143-23.392-.319 10.471-.319 23.392-.319 23.39.143 23.39.319Z" fill="#e0e0e0"/></g></g><g data-name="Group 13"><path data-name="Rectangle 14" fill="#e0e0e0" d="M227.182 176.154h7.92v16.7h-7.92z"/><g data-name="Group 12"><path data-name="Path 11" d="M255.495 199.408c0 .176-10.473.319-23.39.319s-23.392-.143-23.392-.319 10.471-.319 23.392-.319 23.39.143 23.39.319Z" fill="#e0e0e0"/></g></g><g data-name="Group 15"><path data-name="Rectangle 15" fill="#e0e0e0" d="M227.182 209.467h7.92v16.7h-7.92z"/><path data-name="Rectangle 16" fill="#e0e0e0" d="M227.182 243.216h7.92v16.7h-7.92z"/><g data-name="Group 14"><path data-name="Path 12" d="M255.495 232.721c0 .176-10.473.319-23.39.319s-23.392-.143-23.392-.319 10.471-.319 23.392-.319 23.39.143 23.39.319Z" fill="#e0e0e0"/></g></g><path data-name="Rectangle 17" fill="#fafafa" d="M179.993 75.169h7.92v16.7h-7.92z"/><g data-name="Group 16"><path data-name="Path 13" d="M208.306 98.423c0 .176-10.473.319-23.39.319s-23.392-.143-23.392-.319 10.471-.319 23.392-.319 23.39.143 23.39.319Z" fill="#e0e0e0"/></g><path data-name="Rectangle 18" fill="#fafafa" d="M179.993 108.831h7.92v16.7h-7.92z"/><g data-name="Group 17"><path data-name="Path 14" d="M208.306 132.085c0 .176-10.473.319-23.39.319s-23.392-.143-23.392-.319 10.471-.319 23.392-.319 23.39.143 23.39.319Z" fill="#e0e0e0"/></g><path data-name="Rectangle 19" fill="#fafafa" d="M179.993 142.492h7.92v16.7h-7.92z"/><g data-name="Group 18"><path data-name="Path 15" d="M208.306 165.746c0 .177-10.473.319-23.39.319s-23.392-.142-23.392-.319 10.471-.318 23.392-.318 23.39.142 23.39.318Z" fill="#e0e0e0"/></g><path data-name="Rectangle 20" fill="#fafafa" d="M179.993 176.154h7.92v16.7h-7.92z"/><g data-name="Group 19"><path data-name="Path 16" d="M208.306 199.408c0 .176-10.473.319-23.39.319s-23.392-.143-23.392-.319 10.471-.319 23.392-.319 23.39.143 23.39.319Z" fill="#e0e0e0"/></g><path data-name="Rectangle 21" fill="#fafafa" d="M179.993 209.816h7.92v16.7h-7.92z"/><g data-name="Group 20"><path data-name="Path 17" d="M208.306 233.069c0 .177-10.473.319-23.39.319s-23.392-.142-23.392-.319 10.471-.318 23.392-.318 23.39.143 23.39.318Z" fill="#e0e0e0"/></g><g data-name="Group 21"><path data-name="Rectangle 22" fill="#fafafa" d="M179.993 243.477h7.92v16.7h-7.92z"/></g></g><g data-name="Group 29"><g data-name="Group 23"><path data-name="Rectangle 23" fill="#e3e3e3" d="M253.171 194.788h68.788v130.551h-68.788z"/><path data-name="Rectangle 24" fill="#fff" d="M289.706 194.788h32.253v130.551h-32.253z"/></g><g data-name="Group 25"><path data-name="Rectangle 25" fill="#f5f5f5" d="M267.594 207.072h6.185v15.027h-6.185z"/><path data-name="Rectangle 26" fill="#f5f5f5" d="M267.594 265.884h6.185v15.027h-6.185z"/><g data-name="Group 24"><path data-name="Path 18" d="M289.706 228c0 .129-8.179.234-18.267.234s-18.268-.1-18.268-.234 8.178-.235 18.268-.235 18.267.102 18.267.235Z" fill="#f5f5f5"/></g></g><g data-name="Group 27"><path data-name="Rectangle 27" fill="#f5f5f5" d="M267.594 236.701h6.185v15.027h-6.185z"/><g data-name="Group 26"><path data-name="Path 19" d="M289.706 257.626c0 .129-8.179.234-18.267.234s-18.268-.1-18.268-.234 8.178-.235 18.268-.235 18.267.109 18.267.235Z" fill="#f5f5f5"/></g></g><path data-name="Rectangle 28" fill="#e0e0e0" d="M296.555 207.072h6.185v15.027h-6.185z"/><path data-name="Rectangle 29" fill="#e0e0e0" d="M309.973 207.072h6.185v15.027h-6.185z"/><path data-name="Rectangle 30" fill="#e0e0e0" d="M296.555 235.586h6.185v15.027h-6.185z"/><path data-name="Rectangle 31" fill="#e0e0e0" d="M309.973 235.586h6.185v15.027h-6.185z"/><path data-name="Rectangle 32" fill="#e0e0e0" d="M296.555 264.1h6.185v15.027h-6.185z"/><path data-name="Rectangle 33" fill="#e0e0e0" d="M309.973 264.1h6.185v15.027h-6.185z"/><path data-name="Rectangle 34" fill="#e0e0e0" d="M248 191.63h79.131v3.272H248z"/><g data-name="Group 28"><path data-name="Path 20" d="M322.44 195.21c0 .129-15.375.234-34.336.234s-34.34-.1-34.34-.234 15.372-.234 34.34-.234 34.336.105 34.336.234Z" fill="#ebebeb"/></g></g><g data-name="Group 65"><g data-name="Group 50"><g data-name="Group 49"><path data-name="Path 163" d="M97.37 115.136h80.308v210.2H97.37Z" fill="#fff"/><path data-name="Rectangle 36" fill="#efefef" d="M137.525 115.136h40.154v210.203h-40.154z"/><path data-name="Rectangle 37" fill="#ebebeb" d="M106.541 90.15H134.9v24.987h-28.359z"/><path data-name="Rectangle 38" fill="#e0e0e0" d="M128.14 90.15h6.759v24.987h-6.759z"/><path data-name="Rectangle 39" fill="#e0e0e0" d="M90.678 113.679h89.351v1.457H90.678z"/><path data-name="Rectangle 40" fill="#e0e0e0" d="M113.223 126.034h6.798v14.333h-6.798z"/><g data-name="Group 30"><path data-name="Path 21" d="M137.524 145.993c0 .151-8.989.273-20.076.273s-20.077-.122-20.077-.273 8.987-.274 20.077-.274 20.076.123 20.076.274Z" fill="#e0e0e0"/></g><g data-name="Group 32"><path data-name="Rectangle 41" fill="#fcfcfc" d="M153.726 126.034h6.798v14.333h-6.798z"/><g data-name="Group 31"><path data-name="Path 22" d="M178.028 145.993c0 .151-8.99.273-20.076.273s-20.078-.122-20.078-.273 8.988-.274 20.078-.274 20.076.123 20.076.274Z" fill="#ebebeb"/></g></g><g data-name="Group 34"><path data-name="Rectangle 42" fill="#fcfcfc" d="M153.726 154.492h6.798v14.333h-6.798z"/><g data-name="Group 33"><path data-name="Path 23" d="M178.028 174.45c0 .152-8.99.274-20.076.274s-20.078-.122-20.078-.274 8.988-.273 20.078-.273 20.076.123 20.076.273Z" fill="#fcfcfc"/></g></g><g data-name="Group 36"><path data-name="Rectangle 43" fill="#fcfcfc" d="M153.726 183.808h6.798v14.334h-6.798z"/><g data-name="Group 35"><path data-name="Path 24" d="M178.028 203.767c0 .151-8.99.274-20.076.274s-20.078-.123-20.078-.274 8.988-.274 20.078-.274 20.076.123 20.076.274Z" fill="#fcfcfc"/></g></g><g data-name="Group 38"><path data-name="Rectangle 44" fill="#fcfcfc" d="M153.726 213.124h6.798v14.333h-6.798z"/><g data-name="Group 37"><path data-name="Path 25" d="M178.028 233.083c0 .152-8.99.274-20.076.274s-20.078-.122-20.078-.274 8.988-.273 20.078-.273 20.076.122 20.076.273Z" fill="#fcfcfc"/></g></g><g data-name="Group 40"><path data-name="Rectangle 45" fill="#fcfcfc" d="M153.726 241.602h6.798v14.333h-6.798z"/><g data-name="Group 39"><path data-name="Path 26" d="M178.028 261.561c0 .152-8.99.274-20.076.274s-20.078-.122-20.078-.274 8.988-.273 20.078-.273 20.076.122 20.076.273Z" fill="#fcfcfc"/></g></g><g data-name="Group 42"><path data-name="Rectangle 46" fill="#fcfcfc" d="M153.726 270.195h6.798v14.333h-6.798z"/><path data-name="Rectangle 47" fill="#fcfcfc" d="M153.726 299.163h6.798v14.334h-6.798z"/><g data-name="Group 41"><path data-name="Path 27" d="M178.028 290.154c0 .152-8.99.274-20.076.274s-20.078-.122-20.078-.274 8.988-.273 20.078-.273 20.076.119 20.076.273Z" fill="#fcfcfc"/></g></g><path data-name="Rectangle 48" fill="#e0e0e0" d="M113.223 154.926h6.798v14.333h-6.798z"/><g data-name="Group 43"><path data-name="Path 28" d="M137.524 174.885c0 .151-8.989.274-20.076.274s-20.077-.123-20.077-.274 8.987-.274 20.077-.274 20.076.123 20.076.274Z" fill="#e0e0e0"/></g><path data-name="Rectangle 49" fill="#e0e0e0" d="M113.223 183.818h6.798v14.333h-6.798z"/><g data-name="Group 44"><path data-name="Path 29" d="M137.524 203.777c0 .151-8.989.274-20.076.274s-20.077-.123-20.077-.274 8.987-.274 20.077-.274 20.076.123 20.076.274Z" fill="#e0e0e0"/></g><path data-name="Rectangle 50" fill="#e0e0e0" d="M113.223 212.71h6.798v14.333h-6.798z"/><g data-name="Group 45"><path data-name="Path 30" d="M137.524 232.669c0 .151-8.989.274-20.076.274s-20.077-.123-20.077-.274 8.987-.273 20.077-.273 20.076.122 20.076.273Z" fill="#e0e0e0"/></g><path data-name="Rectangle 51" fill="#e0e0e0" d="M113.223 241.602h6.798v14.333h-6.798z"/><g data-name="Group 46"><path data-name="Path 31" d="M137.524 261.561c0 .152-8.989.274-20.076.274s-20.077-.122-20.077-.274 8.987-.273 20.077-.273 20.076.122 20.076.273Z" fill="#e0e0e0"/></g><path data-name="Rectangle 52" fill="#e0e0e0" d="M113.223 270.495h6.798v14.334h-6.798z"/><g data-name="Group 47"><path data-name="Path 32" d="M137.524 290.454c0 .151-8.989.273-20.076.273s-20.077-.122-20.077-.273 8.987-.274 20.077-.274 20.076.12 20.076.274Z" fill="#e0e0e0"/></g><g data-name="Group 48"><path data-name="Rectangle 53" fill="#e0e0e0" d="M113.223 299.387h6.798v14.334h-6.798z"/></g></g></g><g data-name="Group 57"><g data-name="Group 51"><path data-name="Path 164" d="M49.391 194.788h68.788v130.551H49.391Z" fill="#fff"/><path data-name="Rectangle 55" fill="#ebebeb" d="M85.926 194.788h32.253v130.551H85.926z"/></g><g data-name="Group 53"><path data-name="Rectangle 56" fill="#f5f5f5" d="M63.815 207.072H70v15.027h-6.185z"/><path data-name="Rectangle 57" fill="#f5f5f5" d="M63.815 265.884H70v15.027h-6.185z"/><g data-name="Group 52"><path data-name="Path 33" d="M85.926 228c0 .129-8.179.234-18.266.234s-18.269-.1-18.269-.234 8.178-.235 18.269-.235 18.266.102 18.266.235Z" fill="#f5f5f5"/></g></g><g data-name="Group 55"><path data-name="Rectangle 58" fill="#f5f5f5" d="M63.815 236.701H70v15.027h-6.185z"/><g data-name="Group 54"><path data-name="Path 34" d="M85.926 257.626c0 .129-8.179.234-18.266.234s-18.269-.1-18.269-.234 8.178-.235 18.269-.235 18.266.109 18.266.235Z" fill="#f5f5f5"/></g></g><path data-name="Rectangle 59" fill="#e0e0e0" d="M92.776 207.072h6.185v15.027h-6.185z"/><path data-name="Rectangle 60" fill="#e0e0e0" d="M106.194 207.072h6.185v15.027h-6.185z"/><path data-name="Rectangle 61" fill="#e0e0e0" d="M92.776 235.586h6.185v15.027h-6.185z"/><path data-name="Rectangle 62" fill="#e0e0e0" d="M106.194 235.586h6.185v15.027h-6.185z"/><path data-name="Rectangle 63" fill="#e0e0e0" d="M92.776 264.1h6.185v15.027h-6.185z"/><path data-name="Rectangle 64" fill="#e0e0e0" d="M106.194 264.1h6.185v15.027h-6.185z"/><path data-name="Rectangle 65" fill="#ebebeb" d="M44.22 191.63h79.131v3.272H44.22z"/><g data-name="Group 56"><path data-name="Path 35" d="M118.66 195.21c0 .129-15.375.234-34.336.234s-34.34-.1-34.34-.234 15.372-.234 34.34-.234 34.336.105 34.336.234Z" fill="#ebebeb"/></g></g><g data-name="Group 64"><g data-name="Group 58"><path data-name="Rectangle 66" fill="#fdfdfd" d="M4.186 243.749h61.583v81.225H4.186z"/><path data-name="Rectangle 67" fill="#e0e0e0" d="M36.893 243.749h28.875v81.225H36.893z"/></g><g data-name="Group 60"><path data-name="Rectangle 68" fill="#e0e0e0" d="M17.098 254.746h5.537v13.453h-5.537z"/><path data-name="Rectangle 69" fill="#e0e0e0" d="M17.098 307.397h5.537v13.453h-5.537z"/><g data-name="Group 59"><path data-name="Path 36" d="M36.893 273.478c0 .151-7.322.274-16.353.274s-16.355-.123-16.355-.274 7.321-.273 16.355-.273 16.353.122 16.353.273Z" fill="#e0e0e0"/></g></g><g data-name="Group 62"><path data-name="Rectangle 70" fill="#e0e0e0" d="M17.098 281.271h5.537v13.453h-5.537z"/><g data-name="Group 61"><path data-name="Path 37" d="M36.893 300c0 .152-7.322.274-16.353.274S4.185 300.152 4.185 300s7.321-.273 16.355-.273 16.353.125 16.353.273Z" fill="#e0e0e0"/></g></g><path data-name="Rectangle 71" fill="#f5f5f5" d="M43.025 254.746h5.537v13.453h-5.537z"/><path data-name="Rectangle 72" fill="#f5f5f5" d="M55.038 254.746h5.537v13.453h-5.537z"/><path data-name="Rectangle 73" fill="#f5f5f5" d="M43.025 280.273h5.537v13.453h-5.537z"/><path data-name="Rectangle 74" fill="#f5f5f5" d="M55.038 280.273h5.537v13.453h-5.537z"/><path data-name="Rectangle 75" fill="#f5f5f5" d="M43.025 305.799h5.537v13.453h-5.537z"/><path data-name="Rectangle 76" fill="#f5f5f5" d="M55.038 305.799h5.537v13.453h-5.537z"/><path data-name="Rectangle 77" fill="#f7f7f7" d="M-.444 240.922h70.841v2.929H-.444z"/><g data-name="Group 63"><path data-name="Path 38" d="M66.2 244.126c0 .151-13.764.274-30.739.274s-30.743-.123-30.743-.274 13.762-.273 30.743-.273 30.739.122 30.739.273Z" fill="#ebebeb"/></g></g></g></g></g><g data-name="Group 255"><g data-name="Group 1"><path data-name="Path 2" d="M360.79 146.573h-70.4c-5.759 0-10.428 2.984-10.428 6.665v22.038c0 3.681 4.669 6.665 10.428 6.665h1.779v7.034l9.7-7.034h58.93c5.758 0 10.426-2.984 10.426-6.665v-22.038c-.005-3.681-4.678-6.665-10.435-6.665Z" fill="none" stroke="#fff" stroke-miterlimit="10"/><text transform="translate(346.843 170.863)" fill="#fff" font-size="25" font-family="SourceSansPro-Light, Source Sans Pro" font-weight="300"><tspan x="-42.225" y="0">JOB</tspan></text></g><path data-name="Path 162" d="M349.184 109.028h6.25v23.409h-6.25Z" fill="none" stroke="#fff"/><path data-name="Rectangle 39" fill="none" stroke="#fff" stroke-linejoin="round" d="M349.17 129.396h-6V112.07h6z"/><path data-name="Rectangle 40" fill="none" stroke="#fff" stroke-linejoin="round" d="M377.485 132.438h-6.25v-23.409h6.25z"/><path data-name="Rectangle 41" fill="none" stroke="#fff" stroke-linejoin="round" d="M377.733 112.07h6v17.326h-6z"/><path data-name="Rectangle 42" fill="none" stroke="#fff" stroke-linejoin="round" d="M355.465 117.88h15.75v5.705h-15.75z"/></g><g data-name="Group 256" stroke="#aaa"><path data-name="Path 4" d="M283.927 119.285a3.958 3.958 0 1 1-3.958-3.959 3.958 3.958 0 0 1 3.958 3.959Z" fill="none" stroke-miterlimit="10"/><path data-name="Path 5" d="M294.323 95.435a14.354 14.354 0 1 0-20.723 12.851v7.606a3.393 3.393 0 0 0 3.393 3.393h5.948a3.393 3.393 0 0 0 3.393-3.393v-7.606a14.341 14.341 0 0 0 7.989-12.851Z" fill="#fff" stroke-miterlimit="10"/><path data-name="Path 6" d="m279.969 101.426-5.657-5.657h11.314Z" fill="none" stroke-linejoin="round"/><path data-name="Line 6" fill="#664ca8" stroke-linejoin="round" d="M279.969 101.426v9.858"/><path data-name="Line 7" fill="#664ca8" stroke-linecap="round" stroke-linejoin="round" d="M272.875 111.626H287"/><path data-name="Line 8" fill="#664ca8" stroke-linecap="round" stroke-linejoin="round" d="M272.875 113.626H287"/><path data-name="Line 9" fill="#664ca8" stroke-linecap="round" stroke-linejoin="round" d="M272.875 115.626H287"/></g></g></svg>