<svg width="266" height="146" viewBox="0 0 266 146" fill="none" xmlns="http://www.w3.org/2000/svg">
<path d="M234.018 0.501482L210.958 0.54173C210.566 0.542414 210.249 0.860846 210.249 1.25297L210.29 24.8129C210.291 25.2051 210.61 25.5224 211.002 25.5217L234.062 25.4814C234.454 25.4808 234.771 25.1623 234.77 24.7702L234.729 1.21024C234.729 0.81812 234.41 0.500798 234.018 0.501482Z" fill="#E5AC70"/>
<path d="M25.3005 26.0894L24.9205 84.8294C24.918 84.9771 24.8581 85.1181 24.7537 85.2225C24.6492 85.327 24.5083 85.3868 24.3605 85.3894L1.52057 85.5494C1.3694 85.5494 1.22439 85.4893 1.11749 85.3824C1.0106 85.2756 0.950562 85.1305 0.950562 84.9794L0.810547 1.36938C0.810547 1.21821 0.870582 1.0732 0.977478 0.966309C1.08437 0.859413 1.22938 0.799377 1.38055 0.799377L114.721 0.609375C114.872 0.609375 115.017 0.669471 115.124 0.776367C115.23 0.883263 115.291 1.02821 115.291 1.17938L115.231 24.9194C115.231 24.9942 115.216 25.0684 115.187 25.1375C115.158 25.2067 115.117 25.2695 115.064 25.3224C115.011 25.3754 114.948 25.4173 114.879 25.446C114.81 25.4746 114.735 25.4894 114.661 25.4894L25.8705 25.5194C25.7957 25.5194 25.7216 25.5342 25.6524 25.5628C25.5832 25.5915 25.5204 25.6334 25.4675 25.6863C25.4145 25.7393 25.3726 25.8021 25.3439 25.8713C25.3153 25.9404 25.3005 26.0146 25.3005 26.0894Z" fill="#193B33"/>
<path d="M144.228 0.490095L121.608 0.529574C121.078 0.5305 120.649 0.961056 120.65 1.49125L120.69 24.6112C120.691 25.1414 121.122 25.5705 121.652 25.5695L144.272 25.5301C144.802 25.5291 145.231 25.0986 145.23 24.5684L145.19 1.44842C145.189 0.918226 144.759 0.48917 144.228 0.490095Z" fill="#E5AC70"/>
<path d="M173.825 0.529366L151.445 0.490306C150.805 0.489188 150.284 1.00763 150.283 1.64828L150.139 84.3082C150.138 84.9488 150.656 85.4691 151.297 85.4702L173.677 85.5092C174.317 85.5104 174.838 84.9919 174.839 84.3513L174.983 1.69139C174.984 1.05074 174.466 0.530484 173.825 0.529366Z" fill="#E5AC70"/>
<path d="M204.211 0.521816L180.931 0.481184C180.705 0.480789 180.521 0.664033 180.521 0.890469L180.478 25.1104C180.478 25.3369 180.661 25.5208 180.888 25.5211L204.168 25.5618C204.394 25.5622 204.578 25.3789 204.578 25.1525L204.621 0.932531C204.621 0.706095 204.438 0.522211 204.211 0.521816Z" fill="#193B33"/>
<path d="M264.108 0.751343L240.908 0.791834C240.549 0.792461 240.258 1.08398 240.259 1.44297L240.3 24.8629C240.3 25.2219 240.592 25.5124 240.951 25.5118L264.151 25.4713C264.51 25.4707 264.8 25.1792 264.8 24.8202L264.759 1.40021C264.758 1.04122 264.467 0.750716 264.108 0.751343Z" fill="#E5AC70"/>
<path d="M25.3106 120.75C25.3093 120.84 25.3261 120.93 25.3602 121.013C25.3943 121.097 25.445 121.173 25.5092 121.237C25.5734 121.301 25.6499 121.352 25.7343 121.387C25.8186 121.422 25.9092 121.44 26.0006 121.44L263.471 121.35C263.691 121.35 263.909 121.394 264.112 121.478C264.315 121.563 264.5 121.687 264.655 121.843C264.81 121.999 264.933 122.184 265.016 122.388C265.1 122.592 265.142 122.81 265.141 123.03L264.981 145.19C264.981 145.463 264.844 145.6 264.571 145.6L1.23059 145.75C1.14042 145.75 1.05394 145.715 0.990173 145.653C0.926411 145.591 0.890625 145.508 0.890625 145.42L1.0506 91.32C1.0506 91.236 1.06714 91.1527 1.0993 91.0751C1.13147 90.9975 1.17861 90.9269 1.23804 90.8675C1.29747 90.808 1.36803 90.7609 1.44568 90.7287C1.52333 90.6966 1.60657 90.68 1.69061 90.68L29.9906 90.5901C30.2585 90.5901 30.5154 90.4836 30.7048 90.2942C30.8942 90.1048 31.0006 89.8479 31.0006 89.58V31.49C31.0006 31.11 31.194 30.9134 31.5806 30.9001C44.514 30.5934 60.1506 30.4701 78.4906 30.5301C80.9173 30.5367 82.9473 30.6367 84.5806 30.83C84.9873 30.8834 85.1906 31.1134 85.1906 31.52L85.2806 54.33C85.2806 55.07 84.9106 55.4434 84.1706 55.45L55.6306 55.62C55.2639 55.62 55.0806 55.8067 55.0806 56.18L55.3206 89.16C55.3273 90.0467 55.7739 90.49 56.6606 90.49L119.931 90.77C120.186 90.7704 120.432 90.6726 120.617 90.4974C120.801 90.3222 120.91 90.083 120.921 89.83L121.091 86.5901C121.097 86.4615 121.078 86.3329 121.034 86.2119C120.99 86.091 120.922 85.9801 120.835 85.8858C120.747 85.7916 120.641 85.7159 120.524 85.6634C120.406 85.6109 120.279 85.5825 120.151 85.58L91.5206 85.21C91.3403 85.21 91.1673 85.1373 91.0398 85.0079C90.9123 84.8785 90.8406 84.703 90.8406 84.52L90.7906 32.35C90.7906 32.1062 90.8388 31.8648 90.9324 31.6397C91.026 31.4146 91.1631 31.2103 91.336 31.0384C91.5088 30.8664 91.714 30.7303 91.9396 30.638C92.1652 30.5456 92.4068 30.4987 92.6506 30.5L144.621 30.82C145.154 30.82 145.421 31.0867 145.421 31.62L145.311 114.87C145.311 114.992 145.286 115.113 145.239 115.225C145.191 115.338 145.121 115.439 145.034 115.524C144.946 115.609 144.842 115.676 144.728 115.72C144.614 115.764 144.493 115.784 144.371 115.78C124.441 115.3 104.881 115.75 85.1906 115.64C65.4439 115.527 45.6973 115.59 25.9506 115.83C25.5506 115.837 25.3506 116.04 25.3506 116.44L25.3106 120.75ZM116.021 60.49L119.011 60.8C119.334 60.8337 119.658 60.7379 119.911 60.5337C120.164 60.3294 120.325 60.0333 120.361 59.71L120.521 58.2C120.558 57.8481 120.527 57.4926 120.431 57.1537C120.334 56.8149 120.173 56.4994 119.958 56.2254C119.742 55.9513 119.476 55.7241 119.175 55.5567C118.873 55.3894 118.542 55.2852 118.201 55.25L117.961 55.22C117.274 55.1496 116.586 55.3627 116.048 55.8125C115.51 56.2624 115.166 56.9123 115.091 57.62L114.931 59.14C114.897 59.4634 114.993 59.787 115.197 60.0399C115.401 60.2929 115.697 60.4548 116.021 60.49Z" fill="#E5AC70"/>
<path d="M205.42 55.5918C205.23 55.5971 205.049 55.6762 204.917 55.8125C204.784 55.9489 204.71 56.1316 204.71 56.3218L204.53 115.372C204.53 115.428 204.508 115.481 204.469 115.52C204.429 115.56 204.376 115.582 204.32 115.582L151.23 115.462C150.577 115.462 150.25 115.135 150.25 114.482V92.5318C150.25 91.3852 150.823 90.8152 151.97 90.8218L179.45 90.8618C179.731 90.8618 180.001 90.7502 180.2 90.5514C180.398 90.3526 180.51 90.0829 180.51 89.8018L180.48 30.9818C180.48 30.9192 180.492 30.8573 180.517 30.7996C180.541 30.7419 180.576 30.6897 180.621 30.6459C180.666 30.6021 180.719 30.5677 180.777 30.5447C180.835 30.5216 180.897 30.5105 180.96 30.5118L234.07 30.8318C234.263 30.8345 234.447 30.9132 234.583 31.0514C234.72 31.1897 234.797 31.3764 234.8 31.5718L234.98 59.9418C234.987 60.4152 235.223 60.6551 235.69 60.6618L239.05 60.7018C239.463 60.7085 239.72 60.5118 239.82 60.1118C240.2 58.5251 240.337 56.9251 240.23 55.3118C239.75 47.4818 239.97 39.5118 240.01 31.7318C240.013 31.5373 240.092 31.3516 240.23 31.215C240.369 31.0784 240.555 31.0018 240.75 31.0018H264.41C264.857 31.0018 265.077 31.2218 265.07 31.6618L264.81 85.0518C264.81 85.4518 264.607 85.6518 264.2 85.6518L212.14 85.4418C211.113 85.4352 210.597 84.9185 210.59 83.8918L210.46 57.0918C210.459 56.8735 210.414 56.6576 210.328 56.457C210.241 56.2563 210.116 56.0751 209.958 55.924C209.8 55.7729 209.614 55.655 209.41 55.5773C209.206 55.4996 208.988 55.4637 208.77 55.4718L205.42 55.5918Z" fill="#E5AC70"/>
<path d="M84.74 60.7305H61C60.7239 60.7305 60.5 60.9543 60.5 61.2305V84.9505C60.5 85.2266 60.7239 85.4505 61 85.4505H84.74C85.0161 85.4505 85.24 85.2266 85.24 84.9505V61.2305C85.24 60.9543 85.0161 60.7305 84.74 60.7305Z" fill="#193B33"/>
<path d="M264.161 90.8045L211.161 90.712C210.819 90.7114 210.541 90.9885 210.54 91.3309L210.499 114.831C210.498 115.173 210.775 115.451 211.118 115.452L264.118 115.544C264.46 115.545 264.738 115.268 264.739 114.926L264.78 91.4256C264.78 91.0832 264.503 90.8051 264.161 90.8045Z" fill="#193B33"/>
</svg>
