<svg xmlns="http://www.w3.org/2000/svg" width="2400" height="2400"><path d="M469.585 301.934c-83.294 70.19-76.274 200.914 12.923 263.428L717.746 730.23c54.62 38.281 126.872 37.284 181.708-.708 191.308-132.445 452.48-139.43 654.162 1.92 258.759 181.351 321.541 538.178 140.189 796.937-.915 1.305-1.915 2.509-2.815 3.793-182.189 255.56-536.69 316.857-794.168 136.403a572.587 572.587 0 0 1-224.998-614.255c16.995-64.506-6.716-132.767-61.334-171.046l-235.242-164.87c-89.197-62.515-214.469-24.513-252.03 77.735-179.091 487.468-17.069 1052.904 428.342 1365.072 15.185 10.642 30.597 20.736 46.098 30.592 525.067 332.805 1223.778 198.09 1585.95-314.382.923-1.264 1.9-2.489 2.814-3.794 372.03-530.823 243.318-1262.775-287.532-1634.824C1453.479-73.365 866.695-32.74 469.586 301.934" style="isolation:isolate;mix-blend-mode:multiply;fill:#f7f7f7;stroke-width:.98536199"/><path d="M721.288 321.31c-72.467 61.068-66.357 174.795 11.248 229.185l204.663 143.44c47.522 33.305 110.384 32.438 158.095-.615 166.441-115.227 393.669-121.302 569.137 1.675 225.13 157.783 279.75 468.232 121.968 693.36-.795 1.136-1.668 2.186-2.449 3.3-158.508 222.343-466.936 275.672-690.948 118.672a498.167 498.167 0 0 1-195.76-534.419c14.787-56.122-5.843-115.511-53.365-148.817l-204.665-143.44c-77.604-54.39-186.593-21.327-219.273 67.633-155.816 424.112-14.85 916.057 372.67 1187.653 13.21 9.259 26.62 18.041 40.106 26.615 456.822 289.549 1064.723 172.346 1379.821-273.518.803-1.1 1.652-2.165 2.448-3.3 323.677-461.833 211.69-1098.655-250.162-1422.346-387.521-271.596-898.04-236.251-1243.537 54.926" style="isolation:isolate;mix-blend-mode:multiply;fill:#f7f7f7;stroke-width:.98536199"/><path d="M363.644 350.867c-72.467 61.068-66.357 174.796 11.248 229.185l204.663 143.44c47.522 33.305 110.384 32.438 158.095-.615 166.441-115.226 393.669-121.302 569.137 1.676 225.13 157.783 279.75 468.232 121.968 693.36-.796 1.135-1.668 2.185-2.449 3.3-158.508 222.343-466.936 275.671-690.948 118.672a498.167 498.167 0 0 1-195.76-534.42c14.787-56.122-5.843-115.51-53.365-148.817l-204.665-143.44c-77.604-54.389-186.593-21.326-219.273 67.633-155.816 424.112-14.85 916.057 372.67 1187.653 13.21 9.259 26.62 18.042 40.106 26.616 456.822 289.548 1064.723 172.345 1379.821-273.519.803-1.099 1.652-2.165 2.448-3.3 323.677-461.832 211.69-1098.654-250.162-1422.346-387.521-271.596-898.04-236.25-1243.537 54.926" style="opacity:.328;fill:#fff;stroke-width:.98536199"/></svg>