<svg xmlns="http://www.w3.org/2000/svg" version="1.1" xmlns:xlink="http://www.w3.org/1999/xlink" width="512" height="512" x="0" y="0" viewBox="0 0 512 512" style="enable-background:new 0 0 512 512" xml:space="preserve" fill-rule="evenodd" class=""><g><path d="M361 306c-22 0-42-9-58-24-15-16-24-37-24-58 0-22 9-43 24-58 16-16 36-24 58-24s43 8 58 24c16 15 25 35 25 57s-9 43-25 59c-15 15-36 24-58 24zm-48-34c26 26 70 26 96 0 14-13 21-31 21-49-1-18-8-34-21-47s-30-21-48-21-35 8-48 21c-26 26-26 69 0 96z" fill="#5fb670" opacity="1" data-original="#000000"></path><path d="M361 275c-13 0-26-5-36-15-10-9-15-22-15-35-1-14 5-28 15-38 10-9 23-15 36-15 14 0 27 6 37 15 10 10 15 23 15 37s-5 27-15 36-23 15-37 15zm0-89c-9 0-19 4-26 11s-12 17-11 27c0 10 4 19 11 26 14 14 38 14 53 0 14-14 14-38 0-53-7-7-17-11-27-11zM440 309c-2 0-3-1-5-2l-26-25c-3-3-3-7 0-10s7-3 10 0l26 25c3 3 3 7 0 10-1 1-3 2-5 2z" fill="#5fb670" opacity="1" data-original="#000000"></path><path d="M491 374h-1c-6 0-10-2-14-6l-41-41c-4-3-6-8-6-14-1-6 2-12 6-16 8-7 21-8 30 0l41 41v1c8 8 8 21 0 29-4 4-10 6-15 6zm-41-69c-2 0-4 1-5 2s-2 4-2 6c0 1 0 2 2 4l41 41h1c1 2 3 2 4 2 2 1 4 0 5-2 3-2 3-7 0-10l-40-41c-2-1-4-2-6-2zM210 410c-2 0-4-1-5-2 0 0-16-16-45-30-26-12-68-25-123-15-2 0-4 0-5-2-2-1-3-3-3-5V92c0-3 3-6 6-7 1 0 26-4 60 0 31 4 75 15 115 49 40-34 84-45 114-49 35-4 59 0 60 0 4 1 6 4 6 7v60c0 4-3 7-7 7s-7-3-7-7V98c-9-1-27-2-50 1-30 4-73 15-111 49-3 3-7 3-9 0C142 93 65 96 43 98v250c54-8 97 5 124 18 21 10 36 21 43 27 7-6 22-17 43-27 27-13 70-26 124-18v-53c0-4 3-7 7-7s7 3 7 7v61c0 2-1 4-2 5-2 2-4 2-6 2-54-10-97 3-123 15-29 14-45 30-45 30-1 1-3 2-5 2z" fill="#5fb670" opacity="1" data-original="#000000"></path><path d="M413 429h-1c-138-26-266-26-404 0-2 0-4 0-5-2-2-1-3-3-3-5l1-294c0-4 3-7 6-7 1 0 17-2 29-2 4 0 7 3 7 7s-3 7-7 7c-7 0-15 1-21 1l-1 280c133-25 258-25 392 0l-1-135c0-4 3-7 7-7s7 3 7 7l1 143c0 2-1 4-2 5-2 1-3 2-5 2zm-1-254c-4 0-7-3-7-7v-34c-6 0-14-1-22-1-4 0-7-3-7-7s3-7 7-7c13 0 29 2 30 2 4 0 6 3 6 7v40c0 4-3 7-7 7z" fill="#5fb670" opacity="1" data-original="#000000"></path><path d="M210 410c-4 0-7-3-7-7V143c0-4 3-7 7-7s7 3 7 7v260c0 4-3 7-7 7zM242 177c-2 0-4-1-5-2-3-3-2-8 0-10 47-44 113-34 116-34 4 1 7 4 6 8s-4 6-8 6c-1 0-62-9-104 30-1 1-3 2-5 2zM242 220c-2 0-3-1-5-2-2-3-2-7 0-10 16-16 35-26 60-31 4-1 7 2 8 5 1 4-2 8-5 9-22 4-39 13-53 27-1 1-3 2-5 2zM242 262c-2 0-3-1-5-2-2-3-2-7 0-10 12-12 28-21 47-28 4-1 8 1 9 5 1 3-1 7-5 9-16 5-30 13-41 24-1 1-3 2-5 2zM242 304c-2 0-4-1-5-2-3-3-2-7 0-10 17-16 37-26 62-31 4-1 7 2 8 5 1 4-2 8-5 9-23 4-41 13-55 27-1 1-3 2-5 2zM242 346c-2 0-4-1-5-2-3-3-2-8 0-10 47-43 113-34 116-34 4 0 7 4 6 8 0 4-4 6-8 6s-62-8-104 30c-1 1-3 2-5 2zM178 177c-2 0-3-1-5-2-42-39-103-30-104-30-4 0-7-2-8-6 0-4 2-7 6-8 3 0 69-10 116 34 3 2 3 7 0 10-1 1-3 2-5 2zM178 220c-2 0-3-1-5-2-42-39-103-31-104-31-4 0-7-2-8-6 0-4 2-8 6-8 3 0 69-9 116 35 3 2 3 7 0 10-1 1-3 2-5 2zM178 262c-2 0-3-1-5-2-42-39-103-31-104-31-4 0-7-2-8-6 0-4 2-8 6-8 3 0 69-9 116 35 3 2 3 7 0 10-1 1-3 2-5 2zM178 304c-2 0-3-1-5-2-42-39-103-30-104-30-4 0-7-2-8-6 0-4 2-7 6-8 3 0 69-10 116 34 3 2 3 7 0 10-1 1-3 2-5 2zM178 346c-2 0-3-1-5-2-42-38-103-30-104-30-4 0-7-2-8-6 0-4 2-8 6-8 3 0 69-9 116 34 3 2 3 7 0 10-1 1-3 2-5 2z" fill="#5fb670" opacity="1" data-original="#000000"></path></g></svg>