<svg xmlns="http://www.w3.org/2000/svg" version="1.1" xmlns:xlink="http://www.w3.org/1999/xlink" width="512" height="512" x="0" y="0" viewBox="0 0 64 64" style="enable-background:new 0 0 512 512" xml:space="preserve"><g><path d="M8 42a5.006 5.006 0 0 1-5-5v-2a5 5 0 0 1 10 0v2a5.006 5.006 0 0 1-5 5Zm0-10a3 3 0 0 0-3 3v2a3 3 0 0 0 6 0v-2a3 3 0 0 0-3-3ZM15 50a1 1 0 0 1-1-1v-3a2 2 0 0 0-2-2H4a2 2 0 0 0-2 2v3a1 1 0 0 1-2 0v-3a4 4 0 0 1 4-4h8a4 4 0 0 1 4 4v3a1 1 0 0 1-1 1ZM56 42a5.006 5.006 0 0 1-5-5v-2a5 5 0 0 1 10 0v2a5.006 5.006 0 0 1-5 5Zm0-10a3 3 0 0 0-3 3v2a3 3 0 0 0 6 0v-2a3 3 0 0 0-3-3ZM63 50a1 1 0 0 1-1-1v-3a2 2 0 0 0-2-2h-8a2 2 0 0 0-2 2v3a1 1 0 0 1-2 0v-3a4 4 0 0 1 4-4h8a4 4 0 0 1 4 4v3a1 1 0 0 1-1 1ZM32 15a5.006 5.006 0 0 1-5-5V8a5 5 0 0 1 10 0v2a5.006 5.006 0 0 1-5 5Zm0-10a3 3 0 0 0-3 3v2a3 3 0 0 0 6 0V8a3 3 0 0 0-3-3ZM39 23a1 1 0 0 1-1-1v-3a2 2 0 0 0-2-2h-8a2 2 0 0 0-2 2v3a1 1 0 0 1-2 0v-3a4 4 0 0 1 4-4h8a4 4 0 0 1 4 4v3a1 1 0 0 1-1 1ZM32 61a24.823 24.823 0 0 1-17.708-7.354 1 1 0 1 1 1.416-1.412 23 23 0 0 0 32.584 0 1 1 0 1 1 1.416 1.412A24.83 24.83 0 0 1 32 61ZM54.634 29a1 1 0 0 1-.943-.667 23.22 23.22 0 0 0-14.024-14.025 1 1 0 1 1 .666-1.885 25.232 25.232 0 0 1 15.244 15.244A1 1 0 0 1 54.634 29ZM9.366 29a1 1 0 0 1-.943-1.333 25.232 25.232 0 0 1 15.244-15.244 1 1 0 1 1 .666 1.885 23.22 23.22 0 0 0-14.024 14.025 1 1 0 0 1-.943.667ZM33.166 51h-2.332a2.047 2.047 0 0 1-2.027-1.79l-.171-1.361c-.414-.166-.82-.334-1.207-.525l-1.1.861a2.048 2.048 0 0 1-2.7-.168l-1.649-1.649a2.047 2.047 0 0 1-.168-2.7l.842-1.083a17.173 17.173 0 0 1-.481-1.226l-1.386-.167A2.047 2.047 0 0 1 19 39.166v-2.332a2.047 2.047 0 0 1 1.79-2.027l1.361-.17c.163-.407.331-.813.523-1.206l-.859-1.1a2.048 2.048 0 0 1 .168-2.7l1.649-1.649a2.049 2.049 0 0 1 2.7-.168l1.082.842c.4-.172.808-.34 1.223-.481l.17-1.386A2.047 2.047 0 0 1 30.834 25h2.332a2.047 2.047 0 0 1 2.027 1.79l.171 1.361c.414.166.82.334 1.207.525l1.1-.861a2.049 2.049 0 0 1 2.7.168l1.649 1.649a2.047 2.047 0 0 1 .168 2.7l-.842 1.083c.175.41.343.816.481 1.226l1.386.167A2.047 2.047 0 0 1 45 36.834v2.332a2.047 2.047 0 0 1-1.79 2.027l-1.361.17c-.164.408-.332.815-.523 1.206l.859 1.1a2.048 2.048 0 0 1-.168 2.7l-1.649 1.649a2.048 2.048 0 0 1-2.7.168l-1.082-.842c-.4.172-.808.34-1.223.481l-.17 1.386A2.047 2.047 0 0 1 33.166 51Zm-5.719-5.669a1.963 1.963 0 0 1 .862.2 8.289 8.289 0 0 0 .975.4 2.028 2.028 0 0 1 1.337 1.67l.17 1.36 2.375.039.213-1.4a2.027 2.027 0 0 1 1.338-1.669 8.34 8.34 0 0 0 .972-.4 2.031 2.031 0 0 1 2.125.235l1.082.842 1.704-1.654-.838-1.14a2.032 2.032 0 0 1-.236-2.124 8.537 8.537 0 0 0 .4-.972 2.033 2.033 0 0 1 1.674-1.339l1.4-.213v-2.332l-1.4-.213a2.035 2.035 0 0 1-1.67-1.337 8.086 8.086 0 0 0-.4-.976 2.029 2.029 0 0 1 .236-2.121l.842-1.083-1.654-1.704-1.139.838a2.029 2.029 0 0 1-2.124.237 8.289 8.289 0 0 0-.975-.4 2.028 2.028 0 0 1-1.337-1.67l-.17-1.36L30.834 27l-.213 1.4a2.027 2.027 0 0 1-1.338 1.669 8.34 8.34 0 0 0-.972.4 2.031 2.031 0 0 1-2.125-.235l-1.086-.84-1.7 1.652.838 1.14a2.03 2.03 0 0 1 .236 2.124 8.188 8.188 0 0 0-.4.972 2.033 2.033 0 0 1-1.674 1.339l-1.363.17L21 39.166l1.4.213a2.035 2.035 0 0 1 1.67 1.337 8.419 8.419 0 0 0 .4.974 2.032 2.032 0 0 1-.235 2.123l-.841 1.087 1.652 1.7 1.139-.838a2.062 2.062 0 0 1 1.262-.431Z" fill="#E5AC70" opacity="1" data-original="#000000"></path><path d="M32 44a6 6 0 1 1 6-6 6.006 6.006 0 0 1-6 6Zm0-10a4 4 0 1 0 4 4 4 4 0 0 0-4-4Z" fill="#E5AC70" opacity="1" data-original="#000000"></path></g></svg>