<svg xmlns="http://www.w3.org/2000/svg" version="1.1" xmlns:xlink="http://www.w3.org/1999/xlink" width="512" height="512" x="0" y="0" viewBox="0 0 64 64" style="enable-background:new 0 0 512 512" xml:space="preserve" class=""><g><g data-name="08-Archive"><path d="M39 58H5a5.006 5.006 0 0 1-5-5V21a1 1 0 0 1 1-1h15a1 1 0 0 1 .707.293L21.414 25H39a5.006 5.006 0 0 1 5 5v23a5.006 5.006 0 0 1-5 5zM2 22v31a3 3 0 0 0 3 3h34a3 3 0 0 0 3-3V30a3 3 0 0 0-3-3H21a1 1 0 0 1-.707-.293L15.586 22z" fill="#5fb670" opacity="1" data-original="#000000" class=""></path><path d="M53 54H43v-2h9V15H24v11h-2V14a1 1 0 0 1 1-1h30a1 1 0 0 1 1 1v39a1 1 0 0 1-1 1z" fill="#5fb670" opacity="1" data-original="#000000" class=""></path><path d="M63 47H53v-2h9V8H34v6h-2V7a1 1 0 0 1 1-1h30a1 1 0 0 1 1 1v39a1 1 0 0 1-1 1zM26 17h2v2h-2z" fill="#5fb670" opacity="1" data-original="#000000" class=""></path><path d="M30 17h8v2h-8zM26 21h24v2H26zM23 54H5a1 1 0 0 1-1-1v-6a1 1 0 0 1 1-1h18a1 1 0 0 1 1 1v6a1 1 0 0 1-1 1zM6 52h16v-4H6z" fill="#5fb670" opacity="1" data-original="#000000" class=""></path><path d="M8 49h2v2H8zM12 49h8v2h-8zM22.293 22.707 17.586 18H6v3H4v-4a1 1 0 0 1 1-1h13a1 1 0 0 1 .707.293l5 5z" fill="#5fb670" opacity="1" data-original="#000000" class=""></path></g></g></svg>