<svg xmlns="http://www.w3.org/2000/svg" width="512" height="512" viewBox="0 0 66 66" style="enable-background:new 0 0 512 512" xml:space="preserve"><g fill="#5fb670"><path d="M10 26.87c.48 0 .88-.39.88-.87V12c0-.48-.39-.88-.88-.88H6c-.48 0-.88.39-.88.88v14c0 .48.39.87.88.87zm-3.12-14h2.25v12.25H6.88zM18 11.91c.48 0 .88-.39.88-.88V8c0-.48-.39-.88-.88-.88h-4c-.48 0-.88.39-.88.88v18c0 .48.39.87.88.87h4c.48 0 .88-.39.88-.87V14.71c0-.48-.39-.88-.88-.88s-.88.39-.88.88v10.41h-2.25V8.87h2.25v2.16c.01.48.4.88.88.88zM26.88 16c0-.48-.39-.88-.88-.88h-4c-.48 0-.88.39-.88.88v10c0 .48.39.87.88.87h4c.48 0 .88-.39.88-.87zm-1.75 9.12h-2.25v-8.25h2.25zM42.88 18c0-.48-.39-.88-.88-.88H30c-.48 0-.88.39-.88.88s.39.88.88.88h12c.48-.01.88-.4.88-.88zM42 13.12H30c-.48 0-.88.39-.88.88s.39.88.88.88h12c.48 0 .88-.39.88-.88s-.4-.88-.88-.88zm0-4h-6c-.48 0-.88.39-.88.88s.39.88.88.88h6c.48 0 .88-.39.88-.88s-.4-.88-.88-.88zM16 60.88c2.9 0 5.64-1.13 7.69-3.19 2.05-2.05 3.18-4.79 3.18-7.69 0-6-4.88-10.88-10.88-10.88S5.13 44 5.13 50 10 60.88 16 60.88zm7.04-5.08-4.93-4.93h6.97a8.952 8.952 0 0 1-2.04 4.93zm2.04-6.67h-8.21v-8.21c4.34.41 7.8 3.87 8.21 8.21zm-9.95-8.21V50c0 .02.01.04.01.06.01.08.02.15.04.22.01.02.01.04.01.06 0 .01.01.02.02.03.04.09.1.18.17.25l6.42 6.42a9.041 9.041 0 0 1-5.8 2.08c-5.03 0-9.13-4.09-9.13-9.13.01-4.73 3.63-8.63 8.26-9.07zM42 60.88c.48 0 .88-.39.88-.88v-4c0-.48-.39-.88-.88-.88h-4c-.48 0-.88.39-.88.88v4c0 .48.39.88.88.88zm-3.12-4h2.25v2.25h-2.25zM34 55.13h-4c-.48 0-.88.39-.88.88v4c0 .48.39.88.88.88h4c.48 0 .88-.39.88-.88v-4c0-.49-.4-.88-.88-.88zm-.87 4h-2.25v-2.25h2.25zM34.88 48c0-.48-.39-.88-.88-.88h-4c-.48 0-.88.39-.88.88v4c0 .48.39.88.88.88h4c.48 0 .88-.39.88-.88zm-1.75 3.13h-2.25v-2.25h2.25zm25.04-2.33 1.63-1.63 3.58 3.58c.34.34.9.34 1.24 0s.34-.9 0-1.24l-3.58-3.58.1-.1a2.915 2.915 0 0 0 0-4.11l-1.76-1.76c.55-1.52.85-3.13.85-4.79 0-3.75-1.46-7.28-4.12-9.94-2.66-2.65-6.18-4.12-9.94-4.12s-7.28 1.46-9.94 4.12c-2.65 2.65-4.12 6.18-4.12 9.94s1.46 7.28 4.12 9.94c2.66 2.65 6.18 4.12 9.94 4.12 1.66 0 3.28-.3 4.8-.85l1.76 1.76c.57.57 1.31.85 2.05.85s1.49-.28 2.05-.85l.1-.1 6.45 6.45c.17.17.4.26.62.26s.45-.08.62-.26c.34-.34.34-.9 0-1.24zm-20.69-4.92c-4.8-4.8-4.8-12.6 0-17.4 2.4-2.4 5.55-3.6 8.7-3.6s6.3 1.2 8.7 3.6c4.8 4.8 4.8 12.6 0 17.4-4.79 4.8-12.6 4.8-17.4 0zm16.49 5.02-1.27-1.27c1.24-.65 2.4-1.49 3.42-2.51s1.86-2.17 2.51-3.42l1.27 1.27a1.15 1.15 0 0 1 0 1.63l-4.3 4.3c-.44.44-1.19.44-1.63 0z" data-original="#000000"/><path d="M54.78 39.33c.45.17.96-.06 1.13-.52 1.41-3.8.48-8.11-2.38-10.97-1.96-1.96-4.57-3.04-7.34-3.04s-5.38 1.08-7.34 3.04c-4.05 4.05-4.05 10.63 0 14.68 1.96 1.96 4.57 3.04 7.34 3.04s5.38-1.08 7.34-3.04c.37-.37.72-.78 1.02-1.19.29-.39.2-.94-.19-1.22a.867.867 0 0 0-1.22.19c-.25.35-.54.68-.85.99-1.63 1.63-3.8 2.53-6.1 2.53s-4.47-.9-6.1-2.53c-3.37-3.36-3.37-8.84 0-12.2 1.63-1.63 3.8-2.53 6.1-2.53s4.47.9 6.1 2.53a8.65 8.65 0 0 1 1.98 9.12c-.17.44.06.95.51 1.12z" data-original="#000000"/><path d="M46.18 31.06c.9 0 1.63.73 1.63 1.63 0 .48.39.88.88.88s.88-.39.88-.88a3.37 3.37 0 0 0-2.5-3.25v-.5c0-.48-.39-.88-.88-.88s-.88.39-.88.88v.5a3.37 3.37 0 0 0-2.5 3.25c0 1.86 1.51 3.38 3.38 3.38a1.63 1.63 0 1 1-1.63 1.63c0-.48-.39-.88-.88-.88s-.88.39-.88.88a3.37 3.37 0 0 0 2.5 3.25v.5c0 .48.39.88.88.88s.88-.39.88-.88v-.5a3.37 3.37 0 0 0 2.5-3.25c0-1.86-1.51-3.38-3.38-3.38a1.63 1.63 0 0 1 0-3.26z" data-original="#000000"/><circle cx="41" cy="36" r="1" data-original="#000000"/><circle cx="52" cy="36" r="1" data-original="#000000"/><path d="M46 50.48c-.48 0-.88.39-.88.88V62c0 .62-.5 1.13-1.13 1.13H4c-.62 0-1.13-.5-1.13-1.13v-3.45c0-.48-.39-.88-.88-.88s-.88.39-.88.88V62c0 1.58 1.29 2.88 2.88 2.88h40c1.58 0 2.88-1.29 2.88-2.88V51.35a.864.864 0 0 0-.87-.87zM2 55.84c.48 0 .88-.39.88-.88V4c0-.62.5-1.13 1.13-1.13h40c.62 0 1.13.5 1.13 1.13v15.01c0 .48.39.88.88.88s.88-.39.88-.88V4a2.88 2.88 0 0 0-2.88-2.88H4C2.42 1.12 1.13 2.41 1.13 4v50.96c0 .48.39.88.87.88z" data-original="#000000"/></g></svg>