<svg xmlns="http://www.w3.org/2000/svg" version="1.1" xmlns:xlink="http://www.w3.org/1999/xlink" width="512" height="512" x="0" y="0" viewBox="0 0 510 510" style="enable-background:new 0 0 512 512" xml:space="preserve" fill-rule="evenodd" class=""><g><path d="M343.894 478.814H41.987a8 8 0 0 1-8-8V71.971a8 8 0 0 1 2.343-5.657L93.301 9.343A8.002 8.002 0 0 1 98.958 7h294.727a8 8 0 0 1 8 8v289.496l69.477 29.748a8 8 0 0 1 4.851 7.354v64.126c0 47.405-34.35 88.526-80.884 97.142a7.973 7.973 0 0 1-2.914 0c-18.495-3.426-35.067-11.993-48.321-24.052zm41.791-174.328V23H106.958v48.971a8 8 0 0 1-8 8H49.987v382.843H329.7c-11.582-16.267-18.343-36.06-18.343-57.09v-27.42h-7.164v33.611a8 8 0 0 1-8 8H139.491a8 8 0 0 1-8-8v-80.587a8 8 0 0 1 8-8h156.702a8 8 0 0 1 8 8v30.976h7.164v-20.706a8 8 0 0 1 4.851-7.354l5.203-2.228v-82.184h-17.218v33.056a8 8 0 0 1-8 8H139.491a8 8 0 0 1-8-8v-33.056s-25.905-.02-26.168-.06c-3.952-.486-7.016-3.858-7.016-7.94V113.815c0-4.415 3.584-8 8-8 .413 0 25.184.092 25.184.092V73.275a8 8 0 0 1 8-8h156.702a8 8 0 0 1 8 8v80.586a8 8 0 0 1-8 8H139.491a8 8 0 0 1-8-8v-31.954h-17.184v111.925h17.184v-31.531a8 8 0 0 1 8-8h156.702a8 8 0 0 1 8 8v31.531h25.218c4.416 0 8 3.584 8 8v83.33zM90.958 34.314 61.301 63.971h29.657zm197.235 305.014H147.491v64.587h140.702zm-112.077 27.519c-4.416 0-8-3.585-8-8 0-4.416 3.584-8 8-8h83.452c4.415 0 8 3.584 8 8 0 4.415-3.585 8-8 8zm0 25.549c-4.416 0-8-3.585-8-8s3.584-8 8-8h83.452c4.415 0 8 3.585 8 8s-3.585 8-8 8zm112.077-182.095H147.491v64.587h140.702zM176.116 237.82c-4.416 0-8-3.585-8-8s3.584-8 8-8h83.452c4.415 0 8 3.585 8 8s-3.585 8-8 8zm0 25.549c-4.416 0-8-3.584-8-8 0-4.415 3.584-8 8-8h83.452c4.415 0 8 3.585 8 8 0 4.416-3.585 8-8 8zm217.557 55.101-66.316 28.405v58.849c0 39.233 28.08 73.325 66.317 81.126 38.258-7.8 66.339-41.892 66.339-81.126v-58.849zm-39.79 91.631a8.004 8.004 0 0 1-.01-11.314 8.003 8.003 0 0 1 11.314-.009l14.527 14.502 42.748-38.758c3.271-2.966 8.334-2.718 11.3.553s2.718 8.334-.553 11.3l-48.387 43.871a8 8 0 0 1-11.025-.265zm-65.69-328.826H147.491v64.586h140.702zm-112.077 27.518c-4.416 0-8-3.584-8-8 0-4.415 3.584-8 8-8h83.452c4.415 0 8 3.585 8 8 0 4.416-3.585 8-8 8zm0 25.55c-4.416 0-8-3.585-8-8 0-4.416 3.584-8 8-8h83.452c4.415 0 8 3.584 8 8 0 4.415-3.585 8-8 8z" fill="#5fb670" opacity="1" data-original="#000000" class=""></path></g></svg>