<svg width="266" height="181" viewBox="0 0 266 181" fill="none" xmlns="http://www.w3.org/2000/svg">
<g clip-path="url(#clip0_294_86)">
<path d="M234.018 0.501496L210.958 0.541744C210.566 0.542428 210.249 0.86086 210.249 1.25298L210.29 24.8129C210.291 25.2051 210.61 25.5224 211.002 25.5217L234.062 25.4814C234.454 25.4808 234.771 25.1623 234.77 24.7702L234.729 1.21025C234.729 0.818134 234.41 0.500812 234.018 0.501496Z" fill="#E5AC70"/>
<path d="M25.3005 26.0894L24.9205 84.8294C24.918 84.9771 24.8581 85.1181 24.7537 85.2225C24.6492 85.327 24.5083 85.3868 24.3605 85.3894L1.52057 85.5494C1.3694 85.5494 1.22439 85.4893 1.11749 85.3824C1.0106 85.2756 0.950562 85.1305 0.950562 84.9794L0.810547 1.36938C0.810547 1.21821 0.870582 1.0732 0.977478 0.966309C1.08437 0.859413 1.22938 0.799377 1.38055 0.799377L114.721 0.609375C114.872 0.609375 115.017 0.669471 115.124 0.776367C115.23 0.883263 115.291 1.02821 115.291 1.17938L115.231 24.9194C115.231 24.9942 115.216 25.0684 115.187 25.1375C115.158 25.2067 115.117 25.2695 115.064 25.3224C115.011 25.3754 114.948 25.4173 114.879 25.446C114.81 25.4746 114.735 25.4894 114.661 25.4894L25.8705 25.5194C25.7957 25.5194 25.7216 25.5342 25.6524 25.5628C25.5832 25.5915 25.5204 25.6334 25.4675 25.6863C25.4145 25.7393 25.3726 25.8021 25.3439 25.8713C25.3153 25.9404 25.3005 26.0146 25.3005 26.0894Z" fill="#193B33"/>
<path d="M144.228 0.490083L121.608 0.529562C121.078 0.530488 120.649 0.961044 120.65 1.49124L120.69 24.6112C120.691 25.1414 121.122 25.5705 121.652 25.5695L144.272 25.5301C144.802 25.5291 145.231 25.0986 145.23 24.5684L145.19 1.44841C145.189 0.918214 144.759 0.489158 144.228 0.490083Z" fill="#E5AC70"/>
<path d="M173.825 0.529357L151.445 0.490297C150.805 0.489179 150.284 1.00762 150.283 1.64827L150.139 84.3082C150.138 84.9488 150.656 85.4691 151.297 85.4702L173.677 85.5092C174.317 85.5104 174.838 84.9919 174.839 84.3513L174.983 1.69138C174.984 1.05073 174.466 0.530475 173.825 0.529357Z" fill="#E5AC70"/>
<path d="M204.211 0.521803L180.931 0.481171C180.705 0.480776 180.521 0.66402 180.521 0.890456L180.478 25.1104C180.478 25.3369 180.661 25.5208 180.888 25.5211L204.168 25.5618C204.394 25.5622 204.578 25.3789 204.578 25.1525L204.621 0.932518C204.621 0.706082 204.438 0.522198 204.211 0.521803Z" fill="#193B33"/>
<path d="M264.108 0.751344L240.908 0.791835C240.549 0.792462 240.258 1.08398 240.259 1.44297L240.3 24.8629C240.3 25.2219 240.592 25.5124 240.951 25.5118L264.151 25.4713C264.51 25.4707 264.8 25.1792 264.8 24.8202L264.759 1.40021C264.758 1.04122 264.467 0.750717 264.108 0.751344Z" fill="#E5AC70"/>
<path d="M25.3106 120.75C25.3093 120.84 25.3261 120.93 25.3602 121.013C25.3943 121.097 25.445 121.173 25.5092 121.237C25.5734 121.301 25.6499 121.352 25.7343 121.387C25.8186 121.422 25.9092 121.44 26.0006 121.44L263.471 121.35C263.691 121.35 263.909 121.394 264.112 121.478C264.315 121.563 264.5 121.687 264.655 121.843C264.81 121.999 264.933 122.184 265.016 122.388C265.1 122.592 265.142 122.81 265.141 123.03L264.981 145.19C264.981 145.463 264.844 145.6 264.571 145.6L1.23059 145.75C1.14042 145.75 1.05394 145.715 0.990173 145.653C0.926411 145.591 0.890625 145.508 0.890625 145.42L1.0506 91.32C1.0506 91.236 1.06714 91.1527 1.0993 91.0751C1.13147 90.9975 1.17861 90.9269 1.23804 90.8675C1.29747 90.808 1.36803 90.7609 1.44568 90.7287C1.52333 90.6966 1.60657 90.68 1.69061 90.68L29.9906 90.5901C30.2585 90.5901 30.5154 90.4836 30.7048 90.2942C30.8942 90.1048 31.0006 89.8479 31.0006 89.58V31.49C31.0006 31.11 31.194 30.9134 31.5806 30.9001C44.514 30.5934 60.1506 30.4701 78.4906 30.5301C80.9173 30.5367 82.9473 30.6367 84.5806 30.83C84.9873 30.8834 85.1906 31.1134 85.1906 31.52L85.2806 54.33C85.2806 55.07 84.9106 55.4434 84.1706 55.45L55.6306 55.62C55.2639 55.62 55.0806 55.8067 55.0806 56.18L55.3206 89.16C55.3273 90.0467 55.7739 90.49 56.6606 90.49L119.931 90.77C120.186 90.7704 120.432 90.6726 120.617 90.4974C120.801 90.3222 120.91 90.083 120.921 89.83L121.091 86.5901C121.097 86.4615 121.078 86.3329 121.034 86.2119C120.99 86.091 120.922 85.9801 120.835 85.8858C120.747 85.7916 120.641 85.7159 120.524 85.6634C120.406 85.6109 120.279 85.5825 120.151 85.58L91.5206 85.21C91.3403 85.21 91.1673 85.1373 91.0398 85.0079C90.9123 84.8785 90.8406 84.703 90.8406 84.52L90.7906 32.35C90.7906 32.1062 90.8388 31.8648 90.9324 31.6397C91.026 31.4146 91.1631 31.2103 91.336 31.0384C91.5088 30.8664 91.714 30.7303 91.9396 30.638C92.1652 30.5456 92.4068 30.4987 92.6506 30.5L144.621 30.82C145.154 30.82 145.421 31.0867 145.421 31.62L145.311 114.87C145.311 114.992 145.286 115.113 145.239 115.225C145.191 115.338 145.121 115.439 145.034 115.524C144.946 115.609 144.842 115.676 144.728 115.72C144.614 115.764 144.493 115.784 144.371 115.78C124.441 115.3 104.881 115.75 85.1906 115.64C65.4439 115.527 45.6973 115.59 25.9506 115.83C25.5506 115.837 25.3506 116.04 25.3506 116.44L25.3106 120.75ZM116.021 60.49L119.011 60.8C119.334 60.8337 119.658 60.7379 119.911 60.5337C120.164 60.3294 120.325 60.0333 120.361 59.71L120.521 58.2C120.558 57.8481 120.527 57.4926 120.431 57.1537C120.334 56.8149 120.173 56.4994 119.958 56.2254C119.742 55.9513 119.476 55.7241 119.175 55.5567C118.873 55.3894 118.542 55.2852 118.201 55.25L117.961 55.22C117.274 55.1496 116.586 55.3627 116.048 55.8125C115.51 56.2624 115.166 56.9123 115.091 57.62L114.931 59.14C114.897 59.4634 114.993 59.787 115.197 60.0399C115.401 60.2929 115.697 60.4548 116.021 60.49Z" fill="#E5AC70"/>
<path d="M205.42 55.5918C205.23 55.5971 205.049 55.6762 204.917 55.8125C204.784 55.9489 204.71 56.1316 204.71 56.3218L204.53 115.372C204.53 115.428 204.508 115.481 204.469 115.52C204.429 115.56 204.376 115.582 204.32 115.582L151.23 115.462C150.577 115.462 150.25 115.135 150.25 114.482V92.5318C150.25 91.3852 150.823 90.8152 151.97 90.8218L179.45 90.8618C179.731 90.8618 180.001 90.7502 180.2 90.5514C180.398 90.3526 180.51 90.0829 180.51 89.8018L180.48 30.9818C180.48 30.9192 180.492 30.8573 180.517 30.7996C180.541 30.7419 180.576 30.6897 180.621 30.6459C180.666 30.6021 180.719 30.5677 180.777 30.5447C180.835 30.5216 180.897 30.5105 180.96 30.5118L234.07 30.8318C234.263 30.8345 234.447 30.9132 234.583 31.0514C234.72 31.1897 234.797 31.3764 234.8 31.5718L234.98 59.9418C234.987 60.4152 235.223 60.6551 235.69 60.6618L239.05 60.7018C239.463 60.7085 239.72 60.5118 239.82 60.1118C240.2 58.5251 240.337 56.9251 240.23 55.3118C239.75 47.4818 239.97 39.5118 240.01 31.7318C240.013 31.5373 240.092 31.3516 240.23 31.215C240.369 31.0784 240.555 31.0018 240.75 31.0018H264.41C264.857 31.0018 265.077 31.2218 265.07 31.6618L264.81 85.0518C264.81 85.4518 264.607 85.6518 264.2 85.6518L212.14 85.4418C211.113 85.4352 210.597 84.9185 210.59 83.8918L210.46 57.0918C210.459 56.8735 210.414 56.6576 210.328 56.457C210.241 56.2563 210.116 56.0751 209.958 55.924C209.8 55.7729 209.614 55.655 209.41 55.5773C209.206 55.4996 208.988 55.4637 208.77 55.4718L205.42 55.5918Z" fill="#E5AC70"/>
<path d="M84.74 60.7305H61C60.7239 60.7305 60.5 60.9543 60.5 61.2305V84.9505C60.5 85.2266 60.7239 85.4505 61 85.4505H84.74C85.0161 85.4505 85.24 85.2266 85.24 84.9505V61.2305C85.24 60.9543 85.0161 60.7305 84.74 60.7305Z" fill="#193B33"/>
<path d="M264.161 90.8045L211.161 90.712C210.819 90.7114 210.541 90.9885 210.54 91.3309L210.499 114.831C210.498 115.173 210.775 115.451 211.118 115.452L264.118 115.544C264.46 115.545 264.738 115.268 264.739 114.926L264.78 91.4256C264.78 91.0832 264.503 90.8051 264.161 90.8045Z" fill="#193B33"/>
</g>
<path d="M7.19316 157.74C7.54416 157.74 7.84316 157.863 8.09016 158.11C8.33716 158.357 8.46066 158.656 8.46066 159.007C8.46066 159.345 8.33716 159.638 8.09016 159.885C7.84316 160.132 7.54416 160.256 7.19316 160.256C6.84216 160.256 6.54316 160.132 6.29616 159.885C6.04916 159.638 5.92566 159.345 5.92566 159.007C5.92566 158.656 6.04916 158.357 6.29616 158.11C6.54316 157.863 6.84216 157.74 7.19316 157.74ZM10.1572 157.74C10.5082 157.74 10.8072 157.863 11.0542 158.11C11.3012 158.357 11.4247 158.656 11.4247 159.007C11.4247 159.345 11.3012 159.638 11.0542 159.885C10.8072 160.132 10.5082 160.256 10.1572 160.256C9.81916 160.256 9.52666 160.132 9.27966 159.885C9.03266 159.638 8.90916 159.345 8.90916 159.007C8.90916 158.656 9.03266 158.357 9.27966 158.11C9.52666 157.863 9.81916 157.74 10.1572 157.74ZM11.4247 161.503V168.523C11.4247 168.679 11.4702 168.796 11.5612 168.874C11.6392 168.965 11.7432 169.011 11.8732 169.011H12.4192V171H11.1907C10.5927 171 10.0532 170.759 9.57216 170.278C8.83116 170.89 8.00566 171.195 7.09566 171.195C6.06866 171.195 5.18466 170.87 4.44366 170.22C3.45566 169.297 2.96166 168.062 2.96166 166.515C2.96166 165.098 3.41666 163.921 4.32666 162.985C5.15866 162.14 6.17916 161.718 7.38816 161.718C8.06416 161.718 8.74016 161.861 9.41616 162.147L10.2547 161.503H11.4247ZM9.04566 164.019C8.59066 163.85 8.15516 163.765 7.73916 163.765C7.03716 163.765 6.45866 164.025 6.00366 164.545C5.54866 165.052 5.32116 165.715 5.32116 166.534C5.32116 167.353 5.52266 168.01 5.92566 168.504C6.34166 168.998 6.89416 169.245 7.58316 169.245C8.05116 169.245 8.53866 169.141 9.04566 168.933V164.019ZM18.1548 162.03V168.718V169.011H19.1493V171H18.4668L17.7453 170.2H17.7063C17.2643 170.733 16.7118 171 16.0488 171H12.2852V169.011H15.2298C15.4118 169.011 15.5418 168.959 15.6198 168.855C15.7368 168.751 15.7953 168.621 15.7953 168.465V162.03H18.1548ZM13.9233 172.424C14.2743 172.424 14.5733 172.547 14.8203 172.794C15.0673 173.041 15.1908 173.34 15.1908 173.691C15.1908 174.042 15.0673 174.341 14.8203 174.588C14.5733 174.835 14.2743 174.959 13.9233 174.959C13.5723 174.959 13.2733 174.835 13.0263 174.588C12.7793 174.341 12.6558 174.042 12.6558 173.691C12.6558 173.34 12.7793 173.041 13.0263 172.794C13.2733 172.547 13.5723 172.424 13.9233 172.424ZM16.8873 172.424C17.2383 172.424 17.5373 172.547 17.7843 172.794C18.0313 173.041 18.1548 173.34 18.1548 173.691C18.1548 174.042 18.0313 174.341 17.7843 174.588C17.5373 174.835 17.2383 174.959 16.8873 174.959C16.5493 174.959 16.2568 174.835 16.0098 174.588C15.7628 174.341 15.6393 174.042 15.6393 173.691C15.6393 173.34 15.7628 173.041 16.0098 172.794C16.2568 172.547 16.5493 172.424 16.8873 172.424ZM23.6874 157.74C24.0384 157.74 24.3374 157.863 24.5844 158.11C24.8314 158.357 24.9549 158.656 24.9549 159.007C24.9549 159.345 24.8314 159.638 24.5844 159.885C24.3374 160.132 24.0384 160.256 23.6874 160.256C23.3494 160.256 23.0569 160.132 22.8099 159.885C22.5629 159.638 22.4394 159.345 22.4394 159.007C22.4394 158.656 22.5629 158.357 22.8099 158.11C23.0569 157.863 23.3494 157.74 23.6874 157.74ZM24.8769 162.03V168.855C24.8769 169.362 24.7079 169.83 24.3699 170.259C23.9409 170.753 23.4079 171 22.7709 171H19.0074V169.011H22.0104C22.1534 169.011 22.2769 168.959 22.3809 168.855C22.4719 168.764 22.5174 168.653 22.5174 168.523V162.03H24.8769ZM31.7251 171C30.2951 171 29.1706 170.512 28.3516 169.537C27.6626 168.705 27.3181 167.678 27.3181 166.456C27.3181 165 27.7276 163.863 28.5466 163.044C29.4046 162.212 30.5031 161.796 31.8421 161.796C32.8171 161.796 33.6621 162.036 34.3771 162.517C35.3131 163.193 35.7811 164.155 35.7811 165.403V169.011H36.4051V171H35.7616C35.6706 172.404 35.1766 173.503 34.2796 174.296C33.6556 174.855 32.9081 175.238 32.0371 175.446C31.4261 175.589 30.8281 175.661 30.2431 175.661C30.0481 175.661 29.7686 175.648 29.4046 175.622H29.3461L28.3516 174.393V173.535C28.8846 173.626 29.3851 173.672 29.8531 173.672C31.9851 173.672 33.1486 172.781 33.3436 171H31.7251ZM33.4021 165.403C33.4021 164.883 33.2331 164.474 32.8951 164.175C32.5961 163.915 32.2451 163.785 31.8421 163.785C31.1791 163.785 30.6526 164.019 30.2626 164.487C29.8726 164.955 29.6776 165.598 29.6776 166.417C29.6776 167.21 29.8921 167.841 30.3211 168.309C30.7501 168.777 31.3351 169.011 32.0761 169.011H33.4021V165.403ZM40.9403 157.74C41.2913 157.74 41.5903 157.863 41.8373 158.11C42.0843 158.357 42.2078 158.656 42.2078 159.007C42.2078 159.345 42.0843 159.638 41.8373 159.885C41.5903 160.132 41.2913 160.256 40.9403 160.256C40.6023 160.256 40.3098 160.132 40.0628 159.885C39.8158 159.638 39.6923 159.345 39.6923 159.007C39.6923 158.656 39.8158 158.357 40.0628 158.11C40.3098 157.863 40.6023 157.74 40.9403 157.74ZM42.1298 162.03V168.855C42.1298 169.362 41.9608 169.83 41.6228 170.259C41.1938 170.753 40.6608 171 40.0238 171H36.2603V169.011H39.2633C39.4063 169.011 39.5298 168.959 39.6338 168.855C39.7248 168.764 39.7703 168.653 39.7703 168.523V162.03H42.1298ZM47.2035 157.038V168.523C47.2035 168.653 47.2425 168.757 47.3205 168.835C47.3985 168.952 47.522 169.011 47.691 169.011H48.198V171H46.9305C46.3975 171 45.9295 170.811 45.5265 170.434C45.0585 170.005 44.8245 169.479 44.8245 168.855V157.038H47.2035ZM53.9365 157.74C54.2875 157.74 54.5865 157.863 54.8335 158.11C55.0805 158.357 55.204 158.656 55.204 159.007C55.204 159.345 55.0805 159.638 54.8335 159.885C54.5865 160.132 54.2875 160.256 53.9365 160.256C53.5985 160.256 53.306 160.132 53.059 159.885C52.812 159.638 52.6885 159.345 52.6885 159.007C52.6885 158.656 52.812 158.357 53.059 158.11C53.306 157.863 53.5985 157.74 53.9365 157.74ZM56.9005 157.74C57.2515 157.74 57.5505 157.863 57.7975 158.11C58.0445 158.357 58.168 158.656 58.168 159.007C58.168 159.345 58.0445 159.638 57.7975 159.885C57.5505 160.132 57.2515 160.256 56.9005 160.256C56.5495 160.256 56.2505 160.138 56.0035 159.904C55.7695 159.657 55.6525 159.358 55.6525 159.007C55.6525 158.656 55.7695 158.357 56.0035 158.11C56.2505 157.863 56.5495 157.74 56.9005 157.74ZM51.9475 169.011C51.3625 168.231 51.07 167.288 51.07 166.183C51.07 165.182 51.3235 164.318 51.8305 163.59C52.6495 162.394 53.8325 161.796 55.3795 161.796C56.5495 161.796 57.531 162.16 58.324 162.888C59.247 163.733 59.7085 164.831 59.7085 166.183C59.7085 167.249 59.416 168.192 58.831 169.011H60.1765V171H57.2515C56.4065 171 55.7955 170.915 55.4185 170.746H55.321C54.957 170.915 54.346 171 53.488 171H48.067V169.011H51.9475ZM55.3795 168.991C55.9645 168.926 56.4325 168.66 56.7835 168.192C57.1475 167.711 57.3295 167.1 57.3295 166.359C57.3295 165.579 57.154 164.955 56.803 164.487C56.452 164.019 55.9775 163.785 55.3795 163.785C54.7945 163.785 54.32 164.019 53.956 164.487C53.605 164.955 53.4295 165.579 53.4295 166.359C53.4295 167.1 53.605 167.711 53.956 168.192C54.32 168.66 54.7945 168.926 55.3795 168.991ZM65.9145 157.038V168.855C65.9145 169.401 65.739 169.869 65.388 170.259C64.985 170.753 64.4585 171 63.8085 171H60.045V169.011H63.048C63.191 169.011 63.3145 168.959 63.4185 168.855C63.5095 168.764 63.555 168.653 63.555 168.523V157.038H65.9145ZM70.9882 157.038V170.512L69.7792 171.488H68.6092V157.038H70.9882ZM84.0017 161.503C84.3527 161.503 84.6517 161.627 84.8987 161.874C85.1457 162.121 85.2692 162.42 85.2692 162.771C85.2692 163.122 85.1457 163.421 84.8987 163.668C84.6517 163.915 84.3527 164.038 84.0017 164.038C83.6637 164.038 83.3712 163.915 83.1242 163.668C82.8772 163.421 82.7537 163.122 82.7537 162.771C82.7537 162.42 82.8772 162.121 83.1242 161.874C83.3712 161.627 83.6637 161.503 84.0017 161.503ZM86.9852 161.503C87.3232 161.503 87.6157 161.627 87.8627 161.874C88.1097 162.121 88.2332 162.42 88.2332 162.771C88.2332 163.122 88.1097 163.421 87.8627 163.668C87.6157 163.915 87.3232 164.038 86.9852 164.038C86.6342 164.038 86.3352 163.915 86.0882 163.668C85.8412 163.421 85.7177 163.122 85.7177 162.771C85.7177 162.42 85.8412 162.121 86.0882 161.874C86.3352 161.627 86.6342 161.503 86.9852 161.503ZM93.6932 162.03V168.855C93.6932 169.401 93.5242 169.862 93.1862 170.239C92.7702 170.746 92.2372 171 91.5872 171H80.6672C79.8222 171 79.0942 170.727 78.4832 170.181C77.6642 169.492 77.2547 168.595 77.2547 167.49V164.409L78.4637 163.434H79.6337V167.49C79.6337 167.945 79.7897 168.315 80.1017 168.601C80.4007 168.874 80.7452 169.011 81.1352 169.011H90.8267C91.1517 169.011 91.3142 168.848 91.3142 168.523V162.03H93.6932ZM98.7719 157.038V170.512L97.5629 171.488H96.3929V157.038H98.7719ZM105.566 162.03V170.532C105.566 172.144 105.072 173.392 104.084 174.276C103.447 174.861 102.628 175.271 101.627 175.505C101.159 175.596 100.672 175.641 100.165 175.641C99.9957 175.641 99.7682 175.628 99.4822 175.602L98.5267 174.413V173.574C98.9427 173.639 99.3457 173.672 99.7357 173.672C102.037 173.672 103.187 172.554 103.187 170.317V162.03H105.566ZM110.636 157.038V168.523C110.636 168.653 110.675 168.757 110.753 168.835C110.831 168.952 110.954 169.011 111.123 169.011H111.63V171H110.363C109.83 171 109.362 170.811 108.959 170.434C108.491 170.005 108.257 169.479 108.257 168.855V157.038H110.636ZM124.506 155.4C124.831 155.4 125.104 155.517 125.325 155.751C125.546 155.972 125.656 156.245 125.656 156.57C125.656 156.895 125.546 157.168 125.325 157.389C125.104 157.61 124.831 157.72 124.506 157.72C124.181 157.72 123.901 157.61 123.667 157.389C123.446 157.168 123.336 156.895 123.336 156.57C123.336 156.245 123.446 155.972 123.667 155.751C123.901 155.517 124.181 155.4 124.506 155.4ZM123.024 157.74C123.375 157.74 123.667 157.863 123.901 158.11C124.148 158.357 124.272 158.656 124.272 159.007C124.272 159.358 124.148 159.657 123.901 159.904C123.667 160.138 123.375 160.256 123.024 160.256C122.673 160.256 122.374 160.138 122.127 159.904C121.893 159.657 121.776 159.358 121.776 159.007C121.776 158.656 121.893 158.357 122.127 158.11C122.374 157.863 122.673 157.74 123.024 157.74ZM125.968 157.74C126.319 157.74 126.618 157.863 126.865 158.11C127.112 158.357 127.236 158.656 127.236 159.007C127.236 159.345 127.112 159.638 126.865 159.885C126.618 160.132 126.319 160.256 125.968 160.256C125.63 160.256 125.338 160.132 125.091 159.885C124.844 159.638 124.72 159.345 124.72 159.007C124.72 158.656 124.844 158.357 125.091 158.11C125.338 157.863 125.63 157.74 125.968 157.74ZM132.189 162.03V168.406V169.011H133.183V171H132.423L131.779 170.2H131.74C131.298 170.733 130.746 171 130.083 171H125.91L125.266 170.2H125.208C124.779 170.733 124.233 171 123.57 171H119.377L118.734 170.2H118.675C118.246 170.733 117.7 171 117.037 171H111.499V169.011H116.277C116.602 169.011 116.764 168.848 116.764 168.523V164.272H119.143V168.406C119.143 168.679 119.137 168.881 119.124 169.011H122.809C123.134 169.011 123.297 168.848 123.297 168.523V163.141H125.676V168.348C125.676 168.426 125.669 168.543 125.656 168.699C125.656 168.842 125.656 168.946 125.656 169.011H129.322C129.647 169.011 129.81 168.848 129.81 168.523V162.03H132.189ZM134.947 157.74C135.298 157.74 135.597 157.863 135.844 158.11C136.091 158.357 136.215 158.656 136.215 159.007C136.215 159.345 136.091 159.638 135.844 159.885C135.597 160.132 135.298 160.256 134.947 160.256C134.596 160.256 134.297 160.132 134.05 159.885C133.803 159.638 133.68 159.345 133.68 159.007C133.68 158.656 133.803 158.357 134.05 158.11C134.297 157.863 134.596 157.74 134.947 157.74ZM137.911 157.74C138.262 157.74 138.561 157.863 138.808 158.11C139.055 158.357 139.179 158.656 139.179 159.007C139.179 159.345 139.055 159.638 138.808 159.885C138.561 160.132 138.262 160.256 137.911 160.256C137.573 160.256 137.281 160.132 137.034 159.885C136.787 159.638 136.663 159.345 136.663 159.007C136.663 158.656 136.787 158.357 137.034 158.11C137.281 157.863 137.573 157.74 137.911 157.74ZM138.925 162.03V168.718V169.011H139.92V171H139.237L138.516 170.2H138.477C138.035 170.733 137.482 171 136.819 171H133.056V169.011H136C136.182 169.011 136.312 168.959 136.39 168.855C136.507 168.751 136.566 168.621 136.566 168.465V162.03H138.925ZM160.467 162.03V168.855C160.467 169.44 160.259 169.947 159.843 170.376C159.44 170.792 158.946 171 158.361 171H154.266L153.545 170.2H153.486C153.057 170.733 152.511 171 151.848 171H147.753L147.012 170.2H146.954C146.525 170.733 145.979 171 145.316 171H139.778V169.011H144.555C144.88 169.011 145.043 168.848 145.043 168.523V164.272H147.422V168.172C147.422 168.549 147.415 168.829 147.402 169.011H151.088C151.413 169.011 151.575 168.848 151.575 168.523V163.141H153.954V168.348C153.954 168.426 153.948 168.543 153.935 168.699C153.935 168.842 153.935 168.946 153.935 169.011H157.601C157.926 169.011 158.088 168.848 158.088 168.523V162.03H160.467ZM173.395 157.038V168.855C173.395 169.414 173.213 169.888 172.849 170.278C172.433 170.759 171.913 171 171.289 171H163.47L162.495 169.791V169.011H167.233L164.016 159.436H166.239L169.476 169.011H170.529C170.685 169.011 170.815 168.959 170.919 168.855C170.984 168.751 171.016 168.64 171.016 168.523V157.038H173.395ZM168.169 175.817C167.948 175.466 167.838 175.095 167.838 174.705C167.838 174.146 168 173.698 168.325 173.36C168.663 173.022 169.112 172.853 169.671 172.853C169.97 172.853 170.301 172.911 170.665 173.028V174.062C170.405 173.984 170.165 173.945 169.944 173.945C169.372 173.945 169.086 174.257 169.086 174.881C169.086 175.115 169.151 175.323 169.281 175.505C169.437 175.713 169.671 175.817 169.983 175.817H171.309V176.304L170.841 176.87H167.389V175.817H168.169ZM178.467 157.038V170.512L177.258 171.488H176.088V157.038H178.467ZM186.945 170.922C186.386 171.078 185.84 171.156 185.307 171.156C183.929 171.156 182.811 170.623 181.953 169.557C181.251 168.66 180.9 167.6 180.9 166.378C180.9 165.039 181.296 163.954 182.089 163.122C182.908 162.238 184.02 161.796 185.424 161.796C186.464 161.796 187.335 162.062 188.037 162.595C188.921 163.232 189.363 164.168 189.363 165.403V170.532C189.363 172.209 188.83 173.496 187.764 174.393C187.153 174.913 186.392 175.277 185.482 175.485C185.027 175.589 184.52 175.641 183.961 175.641C183.818 175.641 183.591 175.628 183.279 175.602L182.323 174.413V173.574C182.739 173.639 183.149 173.672 183.552 173.672C185.645 173.672 186.776 172.755 186.945 170.922ZM186.984 165.403C186.984 164.844 186.795 164.415 186.418 164.116C186.158 163.895 185.827 163.785 185.424 163.785C184.748 163.785 184.215 164.019 183.825 164.487C183.448 164.955 183.259 165.598 183.259 166.417C183.259 167.262 183.474 167.932 183.903 168.426C184.345 168.907 184.943 169.147 185.697 169.147C186.113 169.147 186.542 169.069 186.984 168.913V165.403ZM203.549 161.503V167.587C203.549 168.705 203.166 169.596 202.399 170.259C201.684 170.87 200.702 171.176 199.454 171.176C198.076 171.176 196.997 170.733 196.217 169.849C195.463 169.056 195.086 167.984 195.086 166.632C195.086 165.163 195.561 163.954 196.51 163.005C197.355 162.147 198.401 161.718 199.649 161.718C200.312 161.718 200.943 161.867 201.541 162.166L202.36 161.503H203.549ZM201.17 164.019C200.715 163.837 200.286 163.746 199.883 163.746C199.155 163.746 198.564 164.012 198.109 164.545C197.667 165.078 197.446 165.774 197.446 166.632C197.446 167.438 197.621 168.068 197.972 168.523C198.336 168.965 198.837 169.186 199.474 169.186C200.046 169.186 200.475 169.03 200.761 168.718C201.034 168.406 201.17 168.023 201.17 167.568V164.019ZM208.345 157.038V168.523C208.345 168.653 208.384 168.757 208.462 168.835C208.54 168.952 208.664 169.011 208.833 169.011H209.34V171H208.072C207.539 171 207.071 170.811 206.668 170.434C206.2 170.005 205.966 169.479 205.966 168.855V157.038H208.345ZM212.699 165.403C212.699 164.168 213.128 163.232 213.986 162.595C214.662 162.075 215.585 161.815 216.755 161.815C217.899 161.815 218.868 162.153 219.661 162.829C220.662 163.687 221.162 164.903 221.162 166.476C221.162 167.958 220.766 169.186 219.973 170.161C219.206 171.111 218.211 171.585 216.989 171.585C215.91 171.585 215.059 171.182 214.435 170.376C214.019 170.792 213.512 171 212.914 171H209.189V169.011H212.192C212.335 169.011 212.459 168.959 212.563 168.855C212.654 168.764 212.699 168.653 212.699 168.523V165.403ZM215.059 168.796C215.54 169.316 216.092 169.576 216.716 169.576C217.327 169.576 217.828 169.31 218.218 168.777C218.608 168.231 218.803 167.529 218.803 166.671C218.803 165.735 218.588 165 218.159 164.467C217.769 164.012 217.262 163.785 216.638 163.785C216.17 163.785 215.8 163.934 215.527 164.233C215.215 164.519 215.059 164.909 215.059 165.403V168.796ZM225.788 157.038V168.523C225.788 168.653 225.827 168.757 225.905 168.835C225.983 168.952 226.107 169.011 226.276 169.011H226.783V171H225.515C224.982 171 224.514 170.811 224.111 170.434C223.643 170.005 223.409 169.479 223.409 168.855V157.038H225.788ZM229.226 162.361C230.461 161.984 231.585 161.796 232.599 161.796C234.172 161.796 235.44 162.29 236.402 163.278C237.273 164.162 237.708 165.28 237.708 166.632V168.718V169.011H238.352V171H237.942L237.299 170.2H237.26C236.818 170.733 236.265 171 235.602 171H226.632V169.011H234.842C235.167 169.011 235.329 168.848 235.329 168.523V166.768C235.329 165.884 235.03 165.176 234.432 164.643C233.847 164.097 233.074 163.824 232.112 163.824C231.475 163.824 230.513 163.967 229.226 164.253V162.361ZM241.682 169.011C241.37 168.257 241.214 167.412 241.214 166.476C241.214 164.942 241.689 163.752 242.638 162.907C243.431 162.192 244.445 161.828 245.68 161.815C246.785 161.815 247.688 162.075 248.39 162.595C249.248 163.245 249.677 164.181 249.677 165.403V168.523C249.677 168.64 249.71 168.751 249.775 168.855C249.879 168.959 249.996 169.011 250.126 169.011H250.301V171H249.443C248.858 171 248.358 170.792 247.942 170.376C247.305 171.182 246.46 171.585 245.407 171.585C244.276 171.585 243.314 171.169 242.521 170.337H242.482L241.936 171H238.211V169.011H241.682ZM247.298 165.403C247.298 164.922 247.149 164.532 246.85 164.233C246.577 163.934 246.187 163.785 245.68 163.785C245.043 163.785 244.529 164.032 244.139 164.526C243.762 165.02 243.574 165.683 243.574 166.515C243.574 167.425 243.769 168.166 244.159 168.738C244.549 169.31 245.049 169.596 245.66 169.596C246.219 169.596 246.765 169.329 247.298 168.796V165.403ZM256.04 157.038V168.718V169.011H257.034V171H256.371L255.63 170.2H255.591C255.149 170.733 254.597 171 253.934 171H250.17V169.011H253.173C253.329 169.011 253.459 168.959 253.563 168.855C253.641 168.725 253.68 168.614 253.68 168.523V157.038H256.04ZM262.762 157.038V168.855C262.762 169.401 262.586 169.869 262.235 170.259C261.832 170.753 261.306 171 260.656 171H256.892V169.011H259.895C260.038 169.011 260.162 168.959 260.266 168.855C260.357 168.764 260.402 168.653 260.402 168.523V157.038H262.762Z" fill="#193B33"/>
<defs>
<clipPath id="clip0_294_86">
<rect width="266" height="146" fill="white"/>
</clipPath>
</defs>
</svg>
