<?xml version="1.0" encoding="UTF-8" standalone="no"?>
<!DOCTYPE svg PUBLIC "-//W3C//DTD SVG 1.1//EN" "http://www.w3.org/Graphics/SVG/1.1/DTD/svg11.dtd">
<svg xmlns="http://www.w3.org/2000/svg" version="1.1" viewBox="0.00 0.00 2761.00 758.00">
<path fill="#207f1f" d="
  M 132.61 0.00
  L 188.99 0.00
  C 204.75 1.94 217.90 12.36 222.07 27.64
  Q 223.67 33.54 223.61 43.77
  Q 223.46 65.89 223.49 87.36
  C 223.52 104.43 212.46 118.87 196.14 123.94
  Q 190.77 125.61 177.58 125.49
  Q 155.20 125.30 136.23 125.42
  C 118.99 125.53 104.21 113.99 99.48 97.75
  Q 97.83 92.11 97.95 79.49
  Q 98.15 58.02 98.03 38.99
  C 98.00 34.86 98.52 30.23 99.89 26.36
  Q 107.92 3.65 132.61 0.00
  Z"
/>
<path fill="#207f1f" d="
  M 327.12 0.00
  L 383.50 0.00
  Q 402.76 2.54 412.56 18.47
  C 416.61 25.05 417.95 32.33 417.90 40.31
  Q 417.73 64.98 417.86 87.55
  C 417.95 104.89 406.19 119.48 389.58 124.17
  Q 384.47 125.62 371.15 125.49
  Q 350.99 125.30 330.95 125.42
  C 313.61 125.53 298.75 114.36 293.90 97.87
  Q 292.35 92.59 292.36 83.67
  Q 292.40 58.77 292.45 37.02
  C 292.46 31.38 294.15 25.18 296.93 20.11
  Q 306.43 2.73 327.12 0.00
  Z"
/>
<path fill="#0b2bab" d="
  M 519.80 758.00
  L 415.95 758.00
  L 374.17 697.04
  Q 373.98 696.77 373.65 696.77
  Q 237.18 696.70 125.16 696.74
  C 80.05 696.75 39.34 673.85 16.83 635.41
  Q 1.88 609.88 0.00 579.35
  L 0.00 564.25
  Q 2.28 437.88 4.33 311.51
  Q 4.56 297.62 5.26 291.53
  C 11.92 233.77 58.50 188.37 116.26 182.83
  Q 122.20 182.26 136.25 182.26
  Q 262.79 182.24 391.50 182.27
  Q 404.68 182.27 411.47 183.09
  C 469.51 190.10 515.07 237.18 519.89 295.20
  Q 520.53 302.89 520.36 312.62
  Q 518.02 445.38 516.00 573.76
  C 515.37 614.07 496.65 650.23 464.03 673.75
  Q 463.64 674.03 463.91 674.43
  L 519.80 758.00
  Z
  M 114.86 572.82
  A 8.89 8.89 0.0 0 0 123.75 581.86
  L 392.22 581.85
  A 8.89 8.89 0.0 0 0 401.11 573.11
  L 405.55 306.13
  A 8.89 8.89 0.0 0 0 396.66 297.09
  L 128.19 297.09
  A 8.89 8.89 0.0 0 0 119.30 305.83
  L 114.86 572.82
  Z"
/>
<path fill="#207f1f" d="
  M 898.97 547.27
  L 690.18 547.27
  A 0.33 0.33 0.0 0 0 689.85 547.60
  L 688.80 690.05
  A 0.35 0.34 0.0 0 1 688.45 690.39
  L 574.27 690.39
  Q 574.00 690.39 574.00 690.12
  Q 575.42 497.60 576.84 305.17
  C 577.12 266.47 595.32 230.48 625.96 207.28
  Q 652.95 186.86 686.39 183.09
  Q 694.66 182.16 705.61 182.17
  Q 798.95 182.30 891.51 182.21
  C 955.06 182.15 1008.82 229.81 1015.30 293.27
  Q 1015.97 299.86 1015.87 313.25
  Q 1014.49 501.72 1013.11 690.15
  A 0.26 0.25 -88.8 0 1 1012.86 690.40
  L 898.98 690.39
  A 0.65 0.65 0.0 0 1 898.33 689.73
  L 899.36 547.66
  A 0.39 0.39 0.0 0 0 898.97 547.27
  Z
  M 901.11 305.66
  C 901.14 300.86 896.82 297.02 892.22 297.01
  Q 796.92 296.99 700.77 297.01
  C 695.37 297.01 691.66 301.03 691.62 306.57
  Q 691.15 372.97 690.66 439.08
  Q 690.65 439.48 691.05 439.48
  L 899.95 439.48
  Q 900.15 439.48 900.16 439.28
  Q 900.65 373.34 901.11 305.66
  Z"
/>
<path fill="#207f1f" d="
  M 1188.20 393.96
  L 1187.89 690.00
  A 0.39 0.39 0.0 0 1 1187.50 690.39
  L 1073.29 690.39
  A 0.21 0.21 0.0 0 1 1073.08 690.18
  L 1073.64 182.62
  A 0.37 0.37 0.0 0 1 1074.01 182.25
  L 1187.89 182.25
  A 0.51 0.50 73.8 0 1 1188.32 182.49
  L 1380.87 479.41
  Q 1381.40 480.23 1381.40 479.25
  L 1381.73 182.51
  Q 1381.73 182.25 1381.99 182.25
  L 1496.01 182.25
  A 0.52 0.52 0.0 0 1 1496.53 182.77
  L 1495.95 690.23
  A 0.16 0.16 0.0 0 1 1495.79 690.39
  L 1381.31 690.39
  Q 1380.86 690.39 1380.61 690.01
  L 1188.57 393.86
  A 0.20 0.20 0.0 0 0 1188.20 393.96
  Z"
/>
<path fill="#207f1f" d="
  M 1558.68 570.93
  L 1563.12 303.90
  A 123.70 123.70 0.0 0 1 1686.80 182.26
  L 1955.32 182.26
  A 123.70 123.70 0.0 0 1 2079.00 308.02
  L 2074.56 575.05
  A 123.70 123.70 0.0 0 1 1950.87 696.69
  L 1682.36 696.69
  A 123.70 123.70 0.0 0 1 1558.68 570.93
  Z
  M 1673.47 572.76
  A 9.01 9.01 0.0 0 0 1682.48 581.92
  L 1950.77 581.92
  A 9.01 9.01 0.0 0 0 1959.78 573.06
  L 1964.23 306.19
  A 9.01 9.01 0.0 0 0 1955.22 297.03
  L 1686.92 297.03
  A 9.01 9.01 0.0 0 0 1677.91 305.89
  L 1673.47 572.76
  Z"
/>
<path fill="#207f1f" d="
  M 2256.28 393.88
  Q 2256.13 394.65 2256.13 395.38
  Q 2255.92 542.51 2255.76 690.05
  Q 2255.76 690.39 2255.42 690.39
  L 2141.30 690.40
  Q 2140.96 690.40 2140.96 690.05
  L 2141.57 182.59
  Q 2141.57 182.25 2141.91 182.25
  L 2255.48 182.25
  Q 2256.08 182.25 2256.40 182.76
  L 2448.86 479.56
  Q 2449.29 480.23 2449.29 479.43
  L 2449.63 182.62
  A 0.38 0.37 -89.2 0 1 2450.00 182.25
  L 2564.04 182.25
  A 0.37 0.37 0.0 0 1 2564.41 182.62
  L 2563.87 690.01
  Q 2563.87 690.39 2563.49 690.39
  L 2449.08 690.39
  A 0.59 0.57 -16.0 0 1 2448.59 690.13
  L 2256.46 393.84
  A 0.10 0.10 0.0 0 0 2256.28 393.88
  Z"
/>
<path fill="#207f1f" d="
  M 2761.00 182.28
  L 2761.00 305.26
  L 2760.44 690.09
  A 0.30 0.30 0.0 0 1 2760.14 690.39
  L 2646.28 690.40
  Q 2645.66 690.40 2645.66 689.78
  L 2646.21 182.81
  Q 2646.22 182.33 2646.70 182.33
  L 2761.00 182.28
  Z"
/>
</svg>
