<svg width="1920" height="983" xmlns="http://www.w3.org/2000/svg"><defs><filter id="a"><feColorMatrix in="SourceGraphic" values="0 0 0 0 1.000000 0 0 0 0 1.000000 0 0 0 0 1.000000 0 0 0 0.399339 0"/></filter><filter id="b"><feColorMatrix in="SourceGraphic" values="0 0 0 0 1.000000 0 0 0 0 1.000000 0 0 0 0 1.000000 0 0 0 0.399339 0"/></filter></defs><g fill="none" fill-rule="evenodd"><g filter="url(#a)"><g stroke="#FFF" stroke-width=".5"><path d="M1262.829 86.38c11.732-19.697-4.96-59.802-10.916-78.887-11.773-37.743-25.596-74.37-38.975-111.182-13.38-36.813-26.864-73.61-37.79-111.764-7.095-24.77-15.874-53.14-13.9-81.234 4.216-59.865 73.687-8.857 93.344 1.59 50.014 26.564 104.912 61.142 164.695 64.569 35.688 2.045 60.866-15.36 75.973-53.697 4.93-12.458 7.206-28.835 18.546-37.044 12.11-8.767 27.765-8.62 40.106-7.413 45.002 4.42 86.418 26.685 124.72 46.86 41.327 21.712 81.25 46.612 121.024 70.27 16.865 10.031 38.863 13.21 58.482 16.84 25.719 4.76 51.771 8.403 77.723 12.382 57.066 8.8 116.125 17.439 167.453 41.806 32.145 15.258 62.9 39.22 70.905 79.31 4.02 20.128-1.409 43.199-4.891 64.498-4.19 25.74-8.829 51.485-12.287 77.221-11.133 82.892-9.209 171.585 54.698 214.383 9.669 6.473 20.406 10.764 30.5 16.423 6.424 3.61 10.924 8.85 8.426 18.323-6.25 23.77-43.982 44.551-61.228 56.028-37.756 25.12-76.692 47.384-114.963 71.234-25.314 15.77-64.149 34.774-80.978 62.304-14.994 24.53 1.155 58.475 8.48 79.396 6.87 19.595 22.135 50.411 9.746 74.432-6.007 11.647-17.645 17.298-28.3 20.707-18.66 5.949-36.772 7.17-55.386 15.564-30.53 13.775-63.702 38.037-80.589 71.171-11.7 22.96-10.071 43.58-5.257 65.246 2.022 9.108 4.025 15.897-1.341 25.487-8.515 15.234-22.82 28.174-35.102 39.662-43.949 41.115-92.857 77.02-142.111 108.389-24.613 15.677-50.082 30.746-76.357 40.948-17.228 6.714-39.269 13.781-54.046 4.879-17.12-10.287-30.704-28.714-43.958-44.352-24.75-29.215-48.135-59.849-71.209-90.725-53.354-71.416-104.635-144.774-153.845-220.075-34.637-53.08-70.292-106.818-97.311-165.952-5.244-11.575-9.368-23.875-12.315-36.735-3.239-13.59-11.337-23.667-20.165-32.856-54.797-57.034-134.661-86.513-205.498-117.47-17.977-7.86-35.962-15.71-53.597-24.248-15.16-7.339-34.617-13.951-45.224-27.953-20.91-27.578 27.595-53.774 47.727-64.226 70.883-36.804 146.769-58.38 219.894-83.017 34.791-11.753 69.7-23.35 104.199-37.127 17.952-7.153 50.612-16.7 60.898-33.966Z"/><path d="M1277.005 90.059c1.505-27.39-8.539-54.336-15.85-78.41-10.518-34.652-22.454-68.581-33.692-102.863-10.626-32.418-21.167-65.08-28.599-99.11-4.53-20.75-10.684-46.007-4.829-69.153 12.682-50.174 77.849-2.25 95.56 6.88 44.022 22.71 92.44 50.945 145.072 52.141 32.866.746 56.834-16.365 70.927-51.646 4.878-12.206 7.332-23.654 18.096-32.245 12.454-9.945 28.2-11.35 41.623-10.954 42.05 1.237 81.468 19.816 117.425 37.174 37.147 17.932 75.198 37.701 107.858 60.536 13.063 9.128 31.952 13.22 47.895 17.235 24.536 6.17 49.442 11.243 74.15 16.892 50.22 11.47 101.228 24.098 145.787 48.821 32.17 17.85 61.486 43.492 74.008 82.045 12.682 39.086 2.939 82.008-2.796 124.93-9.94 74.192-18.596 166.458 32.806 214.28 7.792 7.254 16.989 11.385 25.629 17.208 4.445 2.99 9.218 6.872 8.23 13.784-2.564 17.945-34.838 34.18-46.995 41.801-33.595 21.062-68.21 39.492-102.191 59.526-26.985 15.906-58.972 32.376-80.734 57.376-26.408 30.336-1.652 78.087-2.204 110.289-.964 55.835-60.514 52.198-94.752 58.524-39.313 7.259-85.382 35.915-83.454 84.852.74 18.715 6.769 33.226.176 53.107-10.31 31.093-33.774 59.605-55.037 83.689-31.98 36.193-68.075 69.315-106.357 96.39-27.416 19.38-71.46 49.137-97.75 29.123-17.71-13.454-32.436-32.584-46.877-50.349-21.626-26.595-42.065-54.378-62.092-82.515-46.278-64.876-90.185-132.131-131.073-201.656-27.893-47.447-88.128-209.041-94.85-217.554-20.05-25.376-50.573-41.37-78.222-55.917-36.778-19.355-75.304-35.396-113.572-51.803-18.209-7.823-36.808-15.187-54.407-24.226-12.525-6.435-28.755-15.252-34.174-30.129-10.581-29.031 35.263-53.364 54.44-63.79 58.769-31.976 121.259-52.698 182.034-75.76 29.83-11.328 59.898-22.467 89.204-36.456 11.827-5.653 38.663-15.148 39.587-32.067Z"/><path d="M1297.892 87.864c-5.037-59.61-27.889-115.424-42.783-171.63-7.472-28.215-14.772-56.974-17.774-87.038-1.564-15.635-3.415-35.33 4.077-51.313 20.047-42.754 79.029.096 98.58 9.763 37.807 18.68 79.855 40.884 124.883 39.975 27.515-.563 49.735-15.27 62.284-44.607 5.569-13.017 9.13-24.778 20.453-34.04 11.473-9.384 25.474-12.456 38.319-13.348 36.92-2.577 72.713 11.012 104.577 24.26a678.004 678.004 0 0 1 107.015 56.276c29.69 19.156 66.355 26.374 100.222 36.96 44.861 14.03 89.71 29.688 129.024 55.016 31.046 20.01 58.236 46.999 72.79 84.051 14.762 37.699 12.239 79.333 6.583 122.498-8.55 65.253-22.122 151.425 15.493 200.759 5.467 7.18 11.976 11.52 19.09 16.472 3.455 2.404 8.06 5.272 7.097 10.92-2.322 13.595-31.035 25.406-39.94 30.184-28.424 15.257-57.393 28.729-85.98 43.46-26.688 13.751-55.138 27.699-78.958 48.293-37.925 32.806-9.492 82.397-34.078 120.6-15.267 23.716-44.674 29.632-66.919 32.582-27.378 3.613-59.867-2.717-85.3 18.614-18.945 15.888-15.117 34.06-15.91 54.278-1.34 34.258-21.36 69.758-40.749 98.695-26.196 39.105-58.518 75.34-93.968 104.452-16.068 13.198-33.886 26.265-52.505 32.827-17.446 6.153-28.888 3.54-40.885-7.074-36.717-32.503-65.596-78.957-93.75-121.867-35.373-53.916-68.56-109.917-98.288-168.35-20.27-39.849-40.565-81.317-52.202-126.535-3.032-11.788-5.861-24.318-5.492-37.24.254-9.728 2.111-16.77-2.322-25.075-13.144-24.61-43.62-38.551-66.376-50.487-36.38-19.094-74.622-34.708-112.493-50.833-22.11-9.39-65.934-23.464-69.238-54.848-2.847-27.096 33.22-48.707 51.756-59.932 46.88-28.384 96.98-47.914 145.696-69.748 22.326-10.007 45.202-19.863 66.597-33.048 5.46-3.358 13.395-7.386 17.65-12.894 4.86-6.32 4.33-13.69 3.724-21.028Z"/><path d="M1295.022 98.657c-5.634-53.451-20.891-103.75-29.984-156.064-4.077-23.457-7.832-47.749-6.691-72.69.611-13.413 2.459-29.65 11.53-41.328 26.032-33.518 75.272.508 97.228 10.82 32.603 15.361 69.793 33.447 108.673 30.3 25.468-2.06 43.463-16.888 54.74-43.183 12.092-28.208 31.438-42.334 58.33-45.965 33.707-4.538 66.902 5.302 96.5 15.908 35.643 12.808 69.573 29.38 101.377 49.513 30.93 19.583 65.174 31.434 98.842 45.991 44.635 19.305 88.915 42.205 122.967 78.069 29.646 31.227 48.724 72.25 52.627 120.306 4.093 50.169-9.99 101.815-12.865 152.87-1.795 31.843-3.256 74.516 14.901 98.223 6.056 7.907 23.068 12.37 7.456 23.988-8.926 6.646-20.36 10.31-30.054 14.302-15.663 6.453-31.42 12.412-47.132 18.617-33.49 13.228-68.625 26.179-100.125 46.744-39.674 25.884-30.224 69.83-55.692 104.944-13.704 18.898-34.63 27.978-54.166 33.251-12.644 3.42-25.371 5.317-37.994 6.636-13.184 1.38-27.054.131-40.28 4.21-18.837 5.793-22.882 23.62-30.533 41.146a499.142 499.142 0 0 1-49.473 87.853c-23.794 33.764-51.658 66.455-83.665 90.898-12.457 9.519-26.686 18.995-41.032 21.775-14.346 2.781-23.634-3.58-32.79-12.515-27.174-26.472-48.34-62.794-68.489-97.273-25.216-43.158-48.24-88.291-67.704-135.593-13.435-32.652-26.077-66.803-31.682-103.499-1.627-10.677-2.664-21.686-2.091-32.938.389-7.718 3.245-16.263 1.362-23.372-5.914-22.21-36.782-35.186-53.856-44.36-34.073-18.313-71.207-30.348-105.386-48.388-18.655-9.843-48.444-24.309-50.44-51.017-1.88-25.11 26.086-46.074 43.737-58.573 34.7-24.58 72.244-42.498 108.521-62.932 14.921-8.412 30.893-16.997 44.35-28.755 11.98-10.484 10.424-24.217 8.983-37.92Z"/><path d="M1302.085 104.546c-2.642-45.596-12.002-90.285-14.487-136.503-1.45-27.062-4.419-72.878 21.946-93.962 28.953-23.179 67.922-.868 91.61 10.095 28.193 13.048 61.63 27.824 95.473 22.823 10.701-1.58 21.486-5.7 30.238-14.405 9.368-9.316 12.112-20.744 18.322-31.972 13.029-23.555 35.45-35.279 58.04-39.008 31.931-5.277 63.46 2.101 91.979 11.173 32.291 10.307 63.016 24.285 91.735 41.732 27.458 16.654 55.14 32.276 83.21 47.974 36.723 20.509 72.156 44.313 100.105 76.977 27.528 32.185 45.89 72.54 51.442 119.004 5.411 45.337-1.113 92.859-10.069 139.876-5.086 26.685-11.117 67.505 1.438 90.071 5.58 10.04 14.156 14.733-2.593 22.058-21.09 9.222-44.244 12.878-65.744 18.686-31.02 8.387-62.751 16.874-92.958 30.854-19.29 8.927-32.64 20.816-43.663 40.758-8.39 15.196-14.76 31.395-24.978 45.57-23.976 33.277-61.06 43.693-94.525 54.035-21.526 6.649-39.883 10.555-58.812 27.04-22.377 19.478-41.483 43.818-61.815 65.787-22.33 24.123-46.219 48.819-73.382 65.562-24.181 14.908-43.613 16.433-60.472-1.628-26.301-28.164-44.16-69.344-59.919-106.981-16.043-38.3-30.02-78.921-36.409-122.153-3.447-23.343-1.183-46.96-2.495-70.601-1.675-29.697-38.915-41.207-59.268-51.008-33.787-16.27-147.816-54.616-95.385-120.827 21.885-27.636 53.778-46.114 80.838-65.846 11.224-8.192 25.839-17.336 34.442-29.283 9.371-13.01 6.942-32.178 6.156-45.898Z"/><path d="M1312.581 114.502c.767-39.459-2.756-79.29 1.814-119.658 2.945-26.154 10.201-59.102 35.348-73.536 28.38-16.288 61.935-3.898 85.944 6.28 24.736 10.49 53.585 24.144 83.384 16.77 9.485-2.354 19.167-7.395 25.818-16.401 6.383-8.637 9.412-19.29 15.84-28.126 14.427-19.846 35.21-30.853 56.155-35.309 61.958-13.183 126 14.088 174.486 41.904 24.267 13.926 47.426 31.279 70.47 47.59 29.905 21.163 58.239 45.048 80.805 75.14 47.985 63.974 56.138 146.81 43.048 235.925-4.121 28.05-11.543 56.618-7.713 83.451 1.966 13.849-3.702 19.54-16.529 23.386-20.05 6.006-40.877 7.29-60.938 10.304-28.53 4.286-57.61 8.562-85.809 17.288-19.437 6.016-35.216 13.584-49.435 31.575-10.14 12.826-18.233 27.241-27.711 40.582-18.01 25.34-40.859 47.5-66.5 62.09-20.349 11.549-41.617 20.378-62.835 28.232-27.6 10.24-52.96 22.254-78.982 38.454-34.47 21.429-91.082 65.147-119.372 27.577-31.197-41.445-44.368-107.035-46.142-163.985-.598-19.122 2.27-40.41-3.598-57.773-8.8-25.969-27.314-36.368-48.679-49.12-31.981-19.099-106.544-52.387-72.22-111.212 13.6-23.305 34.94-40.245 52.234-60.131 19.399-22.253 20.62-44.391 21.117-71.297Z"/><path d="M1323.01 124.873c6.282-48.217 6.615-133.448 60.57-158.842 28.508-13.424 60.141-5.898 85.446 2.464 20.377 6.709 42.922 18.177 66.83 9.08 17.574-6.69 24.236-27.79 37.584-41.364 16.554-16.823 37.095-26.386 57.72-30.456 57.64-11.38 115.774 9.43 162.002 34.202 48.009 25.733 92.962 67.308 124.477 114.26 39.29 58.55 51.071 131.795 42.748 210.584-1.54 14.542-3.74 29.092-5.573 43.645-1.224 9.765-.649 20.269-2.836 30-3.653 16.223-15.575 24.114-29.331 27.852-19.795 5.387-40.168 5.445-59.763 6.64-26.801 1.644-53.884 2.8-80.72 7.498-18.04 3.172-37.113 6.805-52.088 22.117-10.216 10.442-18.57 22.984-26.047 35.663-16.03 27.188-30.338 48.365-55.58 66.92-41.477 30.44-89.652 51.273-135.615 65.076-36.072 10.832-92.734 27.282-114.787-7.702-19.804-31.36-15.85-75.565-17.932-114.476-1.013-18.917-3.849-37.341-10.105-54.124-7.889-21.157-19.097-34.78-35.845-47.529-28.186-21.459-73.18-49.669-55.98-99.428 6.346-18.365 18.454-34.06 26.565-51.653 10.753-23.243 15.093-46.105 18.26-70.427Z"/><path d="M1339.83 135.588c13.216-48.932 29.238-110.98 80.273-130.863 24.721-9.632 50.332-7.932 73.787-4.068 16.8 2.763 39.289 14.118 57.555 2.554 13.43-8.517 24.377-24.82 37.748-34.558 18.378-13.389 38.763-21.264 59.21-24.73 53.275-9.04 106.061 6.815 149.819 28.565 95.072 47.27 152.73 160.406 144.263 284.46-2.519 36.98-1.922 78.311-42.677 93.151-44.48 16.178-91.827 7.83-135.767 11.913-16.785 1.554-37.804 2.917-53.605 14.497-9.502 6.958-16.786 18.475-23.121 28.614-16.15 25.814-32.033 48.213-55.285 67.384-35.926 29.63-78.017 51.591-119.163 65.573-35.882 12.19-83.315 23.352-103.046-12.834-15.109-27.777-12.407-65.84-17.645-98.241-5.818-36.078-21.11-67.22-43.812-91.59-22.095-23.684-48.27-46.43-42.815-87.373 1.872-14.044 5.502-31.504 11.105-44.927 9.3-22.093 17.052-44.677 23.176-67.527Z"/><path d="M1358.645 147.741c19.9-45.57 45.77-90.009 91.326-107.975 21.258-8.38 42.96-10.367 64.207-11.215 15.633-.625 30.94.123 46.563-6.914 14.47-6.512 28.162-15.942 42.54-22.907 19.009-9.258 38.732-15.309 58.413-17.919 49.303-6.493 97.34 5.479 138.75 24.5 20.05 9.2 41.09 20.36 56.33 37.28 14.72 16.336 27.317 35.749 37.796 55.855 22.29 42.722 33.867 92.63 32.032 145.831-1.264 36.49-9.045 68.032-45.385 83.983-40.965 17.978-86.09 14.366-126.934 17.467-28.014 2.127-58.236 2.554-79.692 29.952-17.076 21.8-32.883 42.731-53.82 60.454-30.985 26.082-65.404 45.893-101.214 58.256-32.697 11.22-68.386 15.968-88.387-12.536-15.836-22.6-19.663-54.213-29.294-80.956-10.71-29.843-28.134-53.217-47.9-75.47-17.746-20.026-31.997-42.976-32.653-73.917-.139-6.325-.179-13.145.672-19.616 1.087-8.258 5.207-14.614 9.057-22.288 10.179-20.24 18.584-41.242 27.593-61.865Z"/><path d="M1382.046 156.649c24.558-39.809 55.23-72.947 95.66-91.178 17.288-7.802 34.959-12.168 52.505-18.294 14.135-4.945 27.4-9.461 41.72-11.93 33.95-5.822 67.113-19.827 101.198-22.696 45.521-3.864 89.496 5.305 128.617 21.913 19.104 8.107 37.822 18.176 53.963 31.682 13.863 11.6 23.455 28.843 31.869 45.643 16.497 32.918 27.94 72.493 26.983 113.286-2.109 89.936-106.608 93.456-162.362 98.788-25.642 2.456-61.907 1.353-84.801 22.98-16.358 15.447-30.874 32.431-48.385 46.406-47.03 37.529-117.701 72.44-161.81 35.636-18.877-15.744-29.961-40.283-44.099-60.78-14.556-21.107-32.17-38.582-49.634-56.637-16.323-16.87-27.38-33.566-28.04-60.91-.321-13.06 7.01-24.06 13.444-35.981 10.576-19.578 21.55-39.065 33.172-57.928Z"/><path d="M1404.315 163.712c44.183-55.794 112.953-104.368 176.83-113.807 75.137-11.105 150.547-13.163 216.66 12.945 30.653 12.104 62.549 28.162 79.726 59.131 13.078 23.562 25.959 54.775 22.397 85.647-8.704 75.516-97.01 86.736-147.645 93.668-27.26 3.73-59.311 4.07-86.131 17.322-15.555 7.681-29.603 21.765-44.349 31.606-44.686 29.822-97.24 43.955-141.176 25.73-20.313-8.428-37.033-23.146-53.898-36.993-17.265-14.174-35.531-27.213-52.015-42.42-13.157-12.14-27.7-28.05-21.476-50.945 7.838-28.854 33.036-59.097 51.077-81.884Z"/><path d="M1430.398 166.263c45.608-50.126 103.095-91.211 164.04-100.876 32.32-5.123 64.74-2.586 96.073-.498 35.517 2.37 70.376 8.59 102.564 20.625 40.079 14.983 102.105 44.05 90.749 105.627-11.273 61.12-85.056 76.876-128.118 85.245-27.6 5.353-55.663 8.625-83.368 15.959-15.021 3.975-28.804 10.716-43.39 17.2-40.362 17.998-86.077 23.977-125.505 18.142-38.215-5.654-79.42-22.75-109.169-46.344-12.84-10.173-19.13-22.248-12.93-42.106 8.637-27.594 30.21-52.269 49.054-72.974Z"/><path d="M1457.705 161.19c41.41-43.234 93.332-74.251 147.052-82.855 60.219-9.646 122.95 2.58 175.991 21.5 28.192 10.062 90.938 29.113 80.196 76.034-10.742 46.92-71.03 63.295-105.146 71.751-41.383 10.224-84.256 18.343-126.038 24.722-36.31 5.556-74.515 10.586-110.087 10.351-20.093-.081-39.832-2.15-58.983-6.182-14.16-3.019-32.701-5.97-43.202-16.366-26.481-26.233 20.416-78.283 40.217-98.954Z"/><path d="M1490.573 161.06c81.785-79.867 188.471-79.212 273.986-49.945 19.869 6.805 77.385 22.856 69.826 57.723-7.333 33.802-57.661 48.876-81.336 56.12-73.359 22.447-149.484 26.031-222.557 30.99-22.81 1.548-66.414 8.447-79.614-14.753-14.319-25.212 22.74-63.572 39.695-80.136Z"/><path d="M1526.6 156.777c63.479-56.802 150.238-59.126 215.827-37.668 16.063 5.26 57.97 16.765 56.971 42.659-.92 23.956-40.223 35.854-55.292 40.912-33.55 11.266-68.297 16.275-102.32 20.715-31.464 4.115-63.412 8.517-94.42 9.355-16.33.437-48.126 3.201-54.554-16.487-6.927-21.187 19.693-46.873 33.788-59.486Z"/><path d="M1567.29 153.697c43.912-35.664 105.942-38.685 150.88-25.073 12.088 3.668 38.902 10.453 40.446 27.951 1.418 16.113-21.603 24.653-31.998 28.74-46.073 18.114-101.994 25.422-147.776 23.039-11.51-.6-32.662-.91-36.006-15.67-3.423-15.15 14.37-30.8 24.454-38.987Z"/><path d="M1607.728 153.163c23.012-17.167 57.719-19.697 81.202-13.03 16.526 4.696 31.616 18.284 7.317 30.663-24.126 12.276-57.755 16.522-81.895 12.858-18.416-2.798-26.388-15.744-6.624-30.491ZM761.557-142.379c26.306-45.129 34.785-103.362 71.815-143.201 30.412-32.72 72.06-11.953 106.117-14.593 27.062-2.094 52.175-19.519 76.2-36.28 21.576-15.043 42.587-31.268 64.453-45.677 14.144-9.31 40.37-28.522 54.272-20.8 13.31 7.39 13.24 34.597 13.703 50.985.608 21.363-.517 43.073-.344 64.51.279 36.151 7.914 67.374 18.993 99.24a2283.432 2283.432 0 0 0 40.375 107.37c10.51 26.049 21.214 52.067 30.117 79.1 5.582 16.96 19.89 51.086 8.934 69.587-5.228 8.827-17.9 14.467-26.723 18.733-14.932 7.223-30.339 12.773-45.632 18.07-28.486 9.87-57.135 18.419-85.734 27.309-37.118 11.536-72.998 23.263-109.456 39.774-37.714 17.105-75.106 35.713-112.644 53.672-25.426 12.168-52.329 26.826-78.962 27.665-33.339 1.02-43.275-27.148-67.479-41.948-20.818-12.735 16.304-71.022 23.539-89.084 7.346-18.268 10.788-37.314 18.548-55.389 9.689-22.56 22.47-43.917 34.435-65.413 14.642-26.29 29.051-51.035 12.404-74.418-9.48-13.298-22.66-22.816-33.936-34.144-7.302-7.343-21.306-20.81-12.995-35.068Z"/><path d="M775.58-144.097c20.306-38.76 36.157-94.461 71.621-125.757 30.304-26.745 65.583-11.375 98.031-15.492 26.78-3.387 48.944-21.942 71.855-39.487 18.38-14.074 36.647-28.459 55.658-41.351 14.01-9.501 36.678-26.133 50.998-21.237 12.873 4.4 13.309 31.37 13.71 45.198.58 20.184-.945 40.81-2.008 61.261-1.862 35.928-1.729 69.322 7.469 102.062 9.24 32.882 23.526 61.902 37.694 91.684 11.083 23.3 21.858 46.9 30.886 71.537 6.728 18.347 17.398 43.067 12.105 65.394-4.183 17.665-42.927 27.87-55.21 32.309-25.273 9.115-50.756 16.615-76.206 23.995-31.02 8.988-61.11 15.068-91.646 28.234-54.606 23.534-110.434 60.154-167.179 67.935-34.225 4.693-62.754-5.99-86.75-24.187-9.502-7.205-1.427-26.17 3.425-37.146 8.057-18.236 18.153-35.643 26.745-53.651 8.041-16.859 13.732-34.046 20.377-51.323 6.737-17.502 15.705-34.192 23.239-51.364 4.68-10.658 10.347-22.928 9.587-34.214-.784-11.682-8.168-20.818-14.86-28.407-12.595-14.205-53.87-38.64-39.542-65.993Z"/><path d="M799.693-152.276c17.01-36.653 37.628-82.647 71.7-105.361 27.854-18.575 57.377-8.453 86.22-14.131 23.988-4.72 43.292-23.551 63.49-39.694 16.571-13.239 33.219-26.533 50.635-38.14 13.209-8.803 30.727-20.974 44.858-18.323 12.08 2.269 13.37 25.397 13.934 36.862.953 19.534-.825 39.712-2.53 59.653-2.795 32.626-7.608 66.38-2.35 97.443 5.126 30.159 18.36 54.093 31.096 79.717 9.753 19.63 19.174 39.59 26.842 60.617 5.891 16.14 13.494 35.639 10.207 54.63-2.82 16.385-25.52 24.148-37.772 29.542-20.227 8.897-40.887 15.796-61.413 22.853-22.149 7.61-44.97 13.195-66.928 21.435-46.19 17.35-89.23 41.428-136.872 47.357-30.857 3.844-68.058 1.825-91.239-15.76-16.667-12.65 13.495-60.191 21.045-76.636 12.33-26.897 22.804-56.648 28.116-85.057 4.536-24.352-9.407-41.08-22.943-55.287-8.475-8.905-18.214-16.815-25.437-27.05-8.36-11.852-7.789-19.306-.659-34.67Z"/><path d="M821.302-160.891c15.305-30.445 36.494-64.59 65.85-81.242 25.721-14.582 51.397-7.062 77.622-14.966 20.464-6.164 38.588-25.372 55.988-39.33 21.271-17.067 56.95-50.758 82.327-46.742 23.604 3.74 14.018 64.686 12.113 83.432-3.013 29.673-9.15 60.51-8.783 89.806.32 25.222 9.444 44.542 19.048 65.182 12.231 26.34 33.588 61.692 28.27 95.51-3.96 25.2-48.778 39.274-66.337 47.833-18.354 8.933-35.986 22-54.335 30.232-28.955 12.99-64.935 15.838-93.967 17.065-28.23 1.2-63.35.2-85.75-14.455-14.723-9.63-.503-39.788 4.628-55.61 7.259-22.515 11.767-43.89 6.68-65.226-5.175-21.718-17.087-37.644-30.292-53.251-6.79-7.991-15.158-16.07-19.29-26.453-4.623-11.374.347-20.081 6.228-31.785Z"/><path d="M845.725-169.298c15.238-25.084 36.075-49.078 61.722-60.08 21.361-9.164 42.842-3.61 63.922-13.434 16.694-7.775 32.225-23.438 47.267-35.077 18.42-14.27 48.188-40.648 70.055-36.302 21.333 4.258 15.336 49.409 13.55 67.627-2.632 26.706-7.89 53.53-10.399 80.233-1.979 20.942 1.252 37.148 7.64 55.251 7.497 21.259 20.081 47.38 15.8 72.527-3.126 18.192-31.167 33.412-44.013 43.374-8.622 6.695-17.04 13.699-24.422 22.135-5.748 6.569-9.975 13.305-17.609 17.325-19.212 10.106-41.627-.538-59.14-3.924-23.255-4.503-48.245-8.756-69.113-19.24-12.836-6.429-10.814-23.976-11.99-37.881-1.387-16.436-8.148-31.72-13.181-46.519-6.633-19.549-17.054-35.491-27.88-51.91-4.881-7.408-10.998-15.472-12.384-25.2-1.477-10.109 4.677-19.85 10.175-28.905Z"/><path d="M870.137-175.1c15.091-19.64 34.738-35.276 56.421-42.542 16.632-5.589 33.458-4.251 49.551-13.303 14.998-8.44 28.841-19.965 43.103-30.055 15.085-10.663 39.113-29.197 56.187-24.305 18.4 5.275 15.925 37.047 14.547 54.652-1.744 22.247-6.32 44.56-9.323 66.854-2.177 16.652-2.09 33.13.255 48.885 2.426 16.58 8.376 34.638 3.801 52.683-4.06 15.978-21.514 27.773-31.103 40.686-10.247 13.796-16.978 30.708-32.515 38.505-32.04 16.08-70.415-13.53-94.34-27.15-23.621-13.413-32.791-40.543-42.548-66.974-6.447-17.453-14.328-33.688-21.498-50.648-7.305-17.3-5.82-30.002 7.462-47.287Z"/><path d="M892.678-177.182c25.552-26.342 57.652-29.215 87.516-42.78 24.441-11.11 57.812-44.477 82.916-36.46 28.499 9.104 12.193 70.087 8.813 95.367-3.744 28.04 2.527 56.447-4.497 84.29-3.682 14.618-13.834 24.222-23.256 35.383-10.342 12.256-20.324 25.144-34.44 31.53C981.945 2.71 953-14.885 931.734-26.858c-22.016-12.392-32.313-38.63-40.726-63.695-8.936-26.56-24.526-59.612 1.669-86.63ZM1286.911 1128.848c-55.24 5.322-112.502 2.707-167.53 1.956-80.413-1.101-161.144-3.663-239.264-15.43-41.88-6.313-97.364-12.471-126.852-44.959-10.782-11.877-15.579-31.087-22.699-45.976-9.818-20.529-20.196-40.67-30.531-60.816-20.742-40.398-41.711-80.653-61.094-122.026-9.332-19.925-16.558-42.301-27.461-61.067-6.37-10.97-19.24-15.363-29.616-21.145-24.034-13.39-48.471-26.078-72.777-38.985-29.728-15.79-59.58-31.522-88.065-49.456-12.845-8.092-46.4-24.421-45.35-42.393.569-9.676 17.626-17.492 25.526-21.104 14.512-6.642 29.508-11.475 44.325-16.275 34.266-11.1 69.123-20.335 102.773-35.514 17.294-7.807 39.242-16.852 44.164-38.737 4.976-22.102 3.998-44.416 8.588-66.664 5.28-25.604 15.42-49.456 25.386-73.982 7.36-18.13 10.137-36.443 13.632-55.135 3.865-20.658 7.592-41.594 13.93-62.02 4.186-13.494 12.25-37.45 26.805-38.838 20.687-1.982 42.396 22.732 56.85 35.662 19.98 17.863 39.087 36.807 58.755 55.051 14.274 13.251 28.405 26.868 44.775 37.25 26.387 16.735 54.597 30.639 82.555 44.602 51.768 25.855 104.007 50.123 153.623 79.936 43.47 26.12 107.068 147.819 124.092 172.748 33.98 49.762 69.882 99.152 97.059 154.526 7.348 14.986 19.622 36.446 16.339 56.23-2.019 12.195-7.233 16.812-1.848 28.687 7.347 16.201 21.384 29.263 32.948 41.485 18.625 19.682 37.998 38.513 57.08 57.668 38.614 38.711 76.02 78.73 113.84 118.336 11.434 11.973 27.493 22.752 36.573 37.197 5.862 9.295 1.78 14.11-8.602 16.644-18.215 4.448-37.992 1.11-55.357-.544-25.442-2.426-50.596-6.065-75.687-9.83-25.09-3.765-50.13-7.85-75.24-11.603-16.578-2.497-34.403-7.14-51.645-5.479Z"/><path d="M1259.048 1103.328c-57.49 4.065-115.965-.313-172.495-4.27-72.358-5.048-144.904-12.62-213.874-30.039-40.49-10.234-87.792-23.094-115.671-56.009-9.946-11.743-13.555-26.875-19.211-41.715-6.441-16.927-13.834-33.333-21.31-49.602a2629.97 2629.97 0 0 0-48.088-99.136c-8.809-17.303-17.24-38.455-31.343-51.096-11.21-10.053-27.726-15.177-41.074-21.8-24.036-11.93-48.102-23.799-72.01-35.963-27.586-14.039-55.161-28.266-81.505-44.5-14.682-9.05-41.71-21.55-45.16-39.49-3.008-15.653 52.306-32.491 62.346-35.972 31.35-10.867 63.018-20.123 94.015-33.262 18.301-7.735 40.573-17.134 55.763-32.833 12.941-13.382 16.637-35.27 21.168-52.105 5.685-21.083 12.756-42.23 17.382-63.434 4.125-18.89 4.079-37.953 5.233-56.685 1.27-20.606 2.593-41.531 6.824-62.301 2.62-12.77 7.08-34.113 20.496-39.725 15.485-6.461 37.215 16.897 47.024 25.04 19.874 16.56 38.585 34.672 57.633 52.267 31.64 29.219 62.158 56.485 99.91 77.03 49.167 26.748 99.954 50.693 149.484 76.816 18.297 9.636 37.482 18.432 54.542 30.158 9.778 6.726 15.236 15.156 16.01 27.243 1.064 16.498 15.763 34.11 24.664 48.558 13.883 22.523 28.457 44.47 42.898 66.508 31.697 48.39 64.722 96.517 90.313 149.848 8.099 16.869 17.53 35.921 18.685 56.446.648 11.448-5.45 18.438-7.263 29.102-2.357 14.044 9.256 28 15.806 36.992 12.638 17.365 27.393 32.779 42.194 47.807 33.494 34.001 69.18 64.567 106.476 93.696 8.746 6.817 43.514 33.116 12.491 40.543-34.278 8.21-71.643-.123-104.192-3.447-29.309-3.016-58.188-6.789-88.16-4.67Z"/><path d="M1206.573 1064.832c-53.011 2.112-106.313-4.576-157.959-11.367-62.67-8.243-125.176-19.58-183.77-40.1-36.805-12.897-76.022-29.378-101.774-60.17-17.588-21.024-22.284-52.114-33.2-78.122-10.916-26.007-23.147-51.613-37.327-75.35-8.8-14.732-18.553-30.106-33.535-37.86C622.584 743 584.355 727.236 547.684 708.7c-24.27-12.246-48.405-24.822-71.458-39.251-13.904-8.697-33.833-19.27-40.855-35.769-7.76-18.243 116.671-59.435 129.355-64.865 31.802-13.617 71.99-32.901 89.182-69.112 16.432-34.618 17.186-67.381 16.843-102.448-.174-19.935-5.419-76.063 16.578-88.637 12.57-7.189 30.299 8.567 39.348 15.01 17.834 12.694 34.56 26.999 51.538 40.894 24.77 20.236 49.002 43.063 75.183 61.217 18.233 12.639 38.315 22.454 57.344 33.84 27.284 16.332 54.388 32.96 81.465 49.635 22.734 14.003 45.963 27.618 67.16 44 13.186 10.168 21.722 20.338 25.603 36.913 3.38 14.42 13.527 27.771 21.328 40.336 12.887 20.748 26.437 40.944 39.841 61.246 28.06 42.511 56.81 84.898 80.355 131.102 10.752 21.086 30.646 53.516 19.027 81.995-4.188 10.27-5.555 14.973-1.246 24.832 6.118 13.992 16.846 25.09 27.035 35.256 23.751 23.7 53.096 39.921 76.848 63.512 9.653 9.641 20.81 24.636-.526 30.797-24.917 7.227-52.31 2.969-76.476 2.163-12.062-.407-24.203-1.297-36.476-.319-9.435.768-18.721 3.44-28.107 3.784Z"/><path d="M1139.111 1013.193c-47.315-.87-94.332-9.082-139.793-18.334-50.483-10.296-100.452-23.723-146.774-44.494-31.993-14.331-64.417-32.37-86.761-60.77-14.13-17.962-17.749-40.058-26.13-61.8-12.634-32.841-29.531-63-60.25-76.59a1814.477 1814.477 0 0 1-101.818-48.92c-20.174-10.475-40.241-21.3-59.206-33.842-11.993-7.924-27.32-18.343-33.947-31.571-8.863-17.709 86.562-54.6 99.334-60.66 31.676-15.026 59.651-33.954 85.408-60.677 21.015-21.807 21.09-48.83 20.212-75.115-.554-16.33-7.4-60.675 9.475-71.307 9.283-5.877 22.947 2.926 30.685 6.99 14.743 7.751 28.549 17.202 42.58 26.14 20.704 13.22 45.475 22.743 64.44 38.454 42.036 34.808 84.52 68.606 128.167 101.379 24.063 18.063 48.426 35.979 70.78 56.364 8.026 7.319 16.286 14.927 22.44 24.274 3.962 6.01 4.267 12.372 6.723 18.92 11.728 31.19 35.467 57.875 53.849 84.393 24.438 35.253 49.196 70.378 71.096 107.835 11.518 19.702 29.004 44.893 29.296 71.154.09 7.935-4.216 11.653-5.316 18.568-1.276 7.973 5.42 14.602 9.41 19.435 9.056 10.974 53.494 46.039 16.987 56.556-17.407 4.998-35.27 4.183-52.564 5.94-6.262.639-12.427 1.359-18.65 3.558-10.42 3.696-18.862 4.304-29.673 4.12Z"/><path d="M1067.59 957.884c-89.077-8.86-183.796-35.344-256.813-85.112-24.278-16.555-48.435-37.637-60.312-67.245-6.993-17.476-10.65-34.657-23.972-47.457-9.62-9.238-23.355-13.564-35.194-19.257-17.15-8.243-34.212-16.652-51.133-25.328-20.965-10.778-41.813-21.899-61.68-34.586-14.196-9.069-34.396-20.597-41.246-37.597-8.186-20.285 61.741-50.354 72.773-56.57 26.738-15.065 49.164-31.753 69.02-57.342 5.794-7.45 14.005-13.72 18.445-22.07 4.525-8.532 4.777-18.4 4.83-27.214.083-11.546-5.253-42.252 5.994-49.635 6.212-4.075 17.026 1.438 23.137 3.455 11.471 3.77 22.45 8.687 33.7 12.964 19.096 7.242 42.285 7.393 59.4 18.068 46.034 28.69 82.62 74.629 122.368 111.67 23.62 22.039 47.744 43.655 69.808 67.539 6.98 7.559 14.161 15.357 19.688 24.385 3.857 6.3 4.331 13.683 7.564 20.084 12.386 24.565 30.734 45.983 47.063 67.32 21.185 27.72 42.665 55.165 63.23 83.482 12.89 17.748 31.26 37.586 37.983 60.177 4.911 16.499-4.323 15.003-15.64 20.82-5.775 2.965-7.897 8.03-12.388 12.617-6.411 6.548-14.862 8.958-22.659 11.004-10.76 2.834-23.007 3.136-33.48 8.242-3.691 1.796-5.801 5.51-8.898 7.148-9.013 4.774-23.211 1.27-31.589.438Z"/><path d="M1000.894 902.504c-68.721-13.245-138.458-39.178-194.74-80.406-19.58-14.347-37.778-31.282-51.262-52.56-6.143-9.668-9.794-18.524-19.258-24.57-21.962-14.023-45.637-25.354-68.266-38.256-16.195-9.232-32.329-18.747-47.326-29.888-10.03-7.446-23.689-17.354-27.634-30.561-5.718-19.22 40.868-44.88 52.073-52.97 18.577-13.421 38.306-28.897 47.8-51.637 2.9-6.956 4.63-13.601 8.33-20.249 3.158-5.724 6.843-10.548 8.43-16.881 1.972-7.85-.803-23.536 5.95-27.795 4.608-2.911 10.955.638 15.902 1.792 8.023 1.873 16.293 2.975 24.725 3.294 8.89.318 17.998-1.973 26.741-.87 14.19 1.8 27.027 8.883 38.807 15.99 47 28.367 87.856 68.309 126.612 107.69 20.183 20.507 40.253 41.5 57.853 64.783 5.343 7.072 11.619 14.72 14.668 23.684 1.907 5.585 2.073 11.247 4.992 16.34 24.941 43.494 63.653 77.341 94.402 116.406 8.003 10.168 53.515 64.594 12.223 65.256-25.087.405-47.481-6.014-73.485-.464-7.916 1.68-13.65 3.562-19.97 9.588-4.192 4.018.415 3.47-6.99 5.856-8.951 2.837-22.57-2.03-30.577-3.572Z"/><path d="M949.975 855.573c-76.025-22.759-146.3-63.894-204.276-119.05-14.617-13.9-32.72-23.554-49.23-34.775-16.049-10.89-46.706-26.716-49.399-49.542-1.955-16.549 21.955-34.855 32.828-45.519 13.853-13.585 27.498-28.02 30.028-47.777 1.481-11.572 1.21-23.596 2.348-35.257.54-5.571.283-14.76 4.518-17.8 6.996-5.01 22.407.371 30.973 1.172 27.376 2.562 51.438 13.476 74.109 27.196 41.873 25.343 79.834 57.685 115.28 91.912 16.307 15.749 32.702 31.947 46.396 50.519 7.751 10.506 10.39 23.377 17.304 34.222 22.254 34.93 51.303 63.903 74.918 97.805 6.833 9.815 33.383 44.771 5.89 50.658-26.618 5.698-50.336-11.131-77.064-6.785-3.037.512-6.752 1.075-9.582 3.152-1.685 1.247-2.373 5.132-3.463 5.763-11.607 6.99-31.93-3.002-41.578-5.894Z"/><path d="M913.678 818.731c-37.163-14.611-72.505-33.933-107.044-54.2-18.88-11.077-40.373-22-55.233-38.85-9.123-10.361-18.13-20.04-28.398-29.285-11.046-9.947-30.122-23.817-29.819-41.574.228-13.269 16.293-31.172 23.696-43.023 8.113-13.002 11.766-24.063 9.845-38.011-1.204-8.78-10.129-43.384-3.883-48.064 5.947-4.459 21.705 3.778 29.204 6.198 23.715 7.628 45.802 18.594 66.792 31.566 32.512 20.085 62.93 43.93 90.948 70.335 11.574 10.932 23.533 22.235 32.758 35.725 6.21 9.088 9.168 20.365 15.242 29.552 17.383 26.33 38.418 49.753 55.757 76.346 5.56 8.542 25.047 34.095 9.492 46.084-12.982 10.014-32.778 3.539-46.6 7.172-23.537 6.22-42.336-1.937-62.757-9.97Z"/><path d="M896.898 798.153c-29.109-12.395-57.576-27.27-84.877-43.566-17.62-10.517-36.35-21.374-50.717-36.56-7.218-7.625-11.356-17.802-17.14-26.763-5.958-9.221-14.839-20.853-12.78-32.551 1.935-10.993 11.046-23.253 14.503-35.833 3.061-11.166.998-20.439-1.162-30.527-1.37-6.44-10.4-36.185-5.743-38.756 4.989-2.753 16.653 4.724 23.181 7.851a456.763 456.763 0 0 1 52.104 29.18c22.769 14.865 44.78 31.395 64.365 50.643 13.898 13.649 20.571 30.282 31.623 46.18 14.303 20.617 30.422 39.809 44.039 61.143 6.786 10.63 17.39 25.433 14.878 40.841-.956 5.908-6.385 19.134-11.37 22.622-5.988 4.194-16.933.921-22.295-.298-13.424-3.071-26.237-8.339-38.609-13.606Z"/></g></g><g filter="url(#b)"><g stroke="#FFF" stroke-width=".5"><path d="M741.577 51.961c7.204-63.154 32.43-126.924 30.151-192.285-1.87-53.68-38.811-62.028-58.732-88.353-15.83-20.915-22.405-55.708-28.648-89.084-5.61-29.965-10.248-60.711-16.372-90.248-3.967-19.095-10.3-56.44-23.045-58.441-12.201-1.92-26.421 25.167-35.303 41.13-11.58 20.805-22.258 43.162-33.606 64.344-19.127 35.731-40.274 61.445-63.91 85.4-26.897 27.257-54.08 53.456-81.55 78.598-20.23 18.572-40.568 36.977-60.31 57.645-12.384 12.97-39.225 36.923-42.071 62.932-1.357 12.41 3.613 26.836 6.896 37.215 5.554 17.57 12.282 33.807 19.072 49.715 12.645 29.633 26.085 58.066 39.315 86.804 17.171 37.297 33.469 73.921 47.62 115.702 14.624 43.244 28.26 87.76 42.327 131.73 9.526 29.788 18.67 63.077 34.891 82.446 20.321 24.217 41.305 3.14 64.206 5.276 19.7 1.834 27.036-81.923 31.98-104.907 4.981-23.266 12.813-44.589 17.435-67.95 5.767-29.161 8.968-59.28 12.753-88.969 4.624-36.315 8.583-70.933 31.256-82.583 12.902-6.618 26.137-6.903 39.13-10.314 8.418-2.214 24.24-5.85 26.515-25.803Z"/><path d="M733.476 38.361c7.635-52.776 26.962-119.32 21.176-175.235-4.942-47.782-35.125-57.081-53.297-83.818-15.004-22.055-19.147-56-24.288-89.46-4.126-26.842-8.017-53.913-13.158-80.018-3.79-19.238-9.259-51.619-20.804-56.731-10.38-4.597-24.82 21.964-32.336 35.46-10.966 19.702-20.845 41.312-30.923 62.426-17.706 37.087-35.331 70.26-58.294 96.458-23.064 26.31-47.262 45.252-71.785 65.037-19.186 15.48-38.336 31.47-56.935 49.715-13.855 13.583-33.527 30.764-41.94 56.698-6.657 20.515 12.263 57.709 17.63 70.699 11.05 26.71 23.08 51.957 35.152 77.062 14.718 30.593 30.382 57.64 42.602 92.057 21.859 61.536 37.61 136.96 69.083 184.296 18.983 28.55 42.474 37.81 67.072 36.422 9.74-.549 14.641-25.074 17.367-39.392 4.53-23.786 7.347-48.17 11.422-72.102 3.817-22.403 9.279-43.494 14.19-65.34 4.972-22.133 8.12-45.016 12.418-67.377 2.666-13.882 5.56-30.058 11.965-40.77 6.628-11.091 16.055-15.04 24.235-17.931 15.355-5.365 54.059-.912 59.448-38.156Z"/><path d="M723.957 16.162c8.578-48.228 19.799-108.24 10.364-154.495-7.711-37.821-31.533-48.31-46.633-74.012-12.56-21.374-14.776-53.501-18.965-83.581-3.437-24.673-6.895-49.454-11.72-73.096-3.658-17.93-8.251-42.2-18.502-49.399-8.764-6.15-21.714 15.917-28.087 26.909-10.852 18.733-20.33 40.005-29.729 60.992-15.376 34.34-30.078 71.203-49.682 98.39-19.046 26.379-39.907 40.938-61.343 57.522-16.42 12.706-32.804 25.97-48.65 41.515-12.166 11.927-27.169 26-35.077 47.143-6.834 18.232 3.32 41.731 8.17 55.61 8.009 22.906 17.34 44.129 26.502 65.415 9.89 22.965 21.265 44.386 30.704 67.843 19.848 49.36 34.19 103.209 60.944 142.238 17.326 25.283 41.707 49.158 65.47 47.823 17.09-.966 23.14-69.154 27.04-90.735 6.39-35.284 15.442-72.112 27.026-104.015 9.941-27.336 27.464-34.246 43.407-38.937 9.989-2.946 20.246-4.025 30.147-9.162 11.463-5.954 15.018-13.752 18.614-33.968Z"/><path d="M712.956-6.208c6.39-40.952 11.043-89.685 1.425-126.703-8.431-32.425-28.417-42.829-40.662-68.96-9.558-20.389-10.817-52.126-14.376-78.133-4.348-31.799-8.989-90.173-26.95-103.855-16.71-12.721-42.658 54.594-51.291 74.573-13.667 31.622-25.991 66.58-41.573 95.47-13.417 24.872-29.243 37.738-46.06 51.584-21.447 17.687-53.318 37.983-67.716 75.335-10.732 27.832 9.899 73.054 16.387 93.8 6.787 21.674 10.958 46.958 18.11 67.93 11.286 33.095 32.277 60.992 49.776 82.436 17.01 20.86 39.481 44.329 61.158 45.35 14.247.677 21.166-39.235 26.25-58.552 7.263-27.457 15.647-51.865 30.006-69.55 14.616-18.003 30.405-25.55 46.835-31.88 8.43-3.221 17.894-5.43 25.916-12.882 8.85-8.096 10.307-20.222 12.765-35.963Z"/><path d="M703.29-32.745c3.617-35.517 3.167-73.845-7.09-102.613-8.544-23.962-24.868-33.388-32.89-57.81-6.356-19.334-7.855-45.697-11.156-67.721-4.031-26.988-8.812-73.897-24.746-84.79-15.553-10.61-35.449 38.412-43.872 57.752-12.34 28.36-23.102 58.663-35.517 86.933-9.73 22.18-20.233 36.032-33.702 49.57-15.813 15.904-37.35 33.098-47.844 61.056-7.574 20.245 1.97 54.87 4.778 73.701 1.88 12.648 3.47 25.46 3.663 38.975.15 10.524-.737 20.156 1.926 29.46 6.708 23.402 26.28 28.42 38.992 37.238 16.882 11.703 34.717 24.86 53.24 28.962 11.384 2.542 19.309-16.295 27.324-29.29 9.472-15.362 21.698-25.842 32.59-37.04 14.379-14.807 29.236-23.394 44.594-32.174 6.928-3.963 14.97-7.72 20.93-16.418 6.216-9.015 7.473-22.973 8.78-35.79Z"/><path d="M689.532-56.63c.857-30.067-3.245-59.322-13.018-81.668-7.49-17.154-18.737-27.551-24.07-47.777-4.967-18.854-7.59-39.974-11.23-59.956-3.853-21.126-9.179-56.32-22.45-63.353-14.302-7.576-29.438 25.77-37.82 44.251-10.592 23.357-19.443 48.753-29.27 73.033-7.382 18.09-16.09 34.43-25.835 48.474-10.228 14.81-23.442 28.634-30.052 49.782-5.847 18.732-1.102 42.636-1.875 62.171-.823 20.872-5.487 42.396.156 60.985 11.636 38.337 51.238 35.616 73.387 38.738 21.85 3.115 41.846-17.493 61.843-36.997 13.207-12.876 26.673-23.54 40.075-35.421 13.664-12.125 19.404-25.802 20.16-52.262Z"/><path d="M678.087-74.753c-2.203-43.817-20.824-68.94-32.433-103.098-9.498-27.963-12.916-84.164-32.864-93.647-22.648-10.764-44.42 60.938-55.564 88.316-12.365 30.364-31.202 54.14-41.406 86.586-5.361 17.029-4.035 33.584-3.982 51.174.055 19.314-.448 39.003 5.054 55.123 10.83 31.723 38.213 34.388 57.83 37.292 20.307 3.009 40.53-15.825 58.957-34.806 19.54-20.099 46.658-42.007 44.408-86.94Z"/><path d="M667.445-88.381c-4.375-31.61-17.741-58.34-28.238-83.349-8.763-20.851-16.249-61.759-32.472-66.324-19.066-5.377-35.288 35.76-45.659 60.94-10.203 24.74-23.872 50.56-30.98 78.143-7.41 28.733.02 69.26 8.877 91.075 9.878 24.325 29.105 34.95 46.468 35.847 18.176.965 36.764-16.327 52.531-34.633 16.856-19.568 34.567-45.003 29.473-81.7Z"/><path d="M658.217-94.112c-4.552-26.413-14.835-49.432-24.384-70.005-7.37-15.883-17.89-42.677-30.722-44.655-14.116-2.178-28.382 17.885-36.32 39.153-7.827 20.977-16.527 47.394-19.845 70.962-7.222 51.322 23.513 112.892 51.64 111.1 26.667-1.698 68.71-53.928 59.63-106.555ZM608.433 823.115c16.478 36.846 56.096 65.591 60.69 108.312 3.775 35.085-42.551 57.812-65.025 83.974-17.86 20.786-22.278 46.054-26.433 70.262-3.739 21.738-6.141 43.514-10.586 65.22-2.884 14.036-6.7 40.816-22.783 48.097-15.397 6.973-36.711-3.585-49.915-9.57-17.213-7.8-33.45-17.014-50.41-25.164-28.588-13.754-58.61-20.173-91.618-24.298a2612.87 2612.87 0 0 0-113.416-11.653c-28.03-2.3-56.177-4.444-83.822-8.31-17.342-2.428-54.452-5.042-61.083-20.274-3.164-7.268 1.541-18.801 4.55-26.962 5.09-13.812 11.837-27.329 18.7-40.665 12.78-24.84 26.717-49.29 40.349-73.836 17.694-31.857 34.346-62.873 47.658-96.163 13.75-34.447 26.09-69.236 39.043-103.883 8.77-23.47 16.65-48.99 35.187-68.975 23.229-25.006 52.51-21.465 81.578-33.618 25.005-10.451 44.02 39.46 52.989 51.775 9.05 12.477 21.526 22.373 30.126 35.08 10.733 15.864 18.291 33.546 26.547 50.68 10.092 20.96 19.138 41.153 49.498 37.892 17.275-1.863 34.25-7.918 51.272-11.868 11.03-2.556 31.7-7.694 36.904 3.947Z"/><path d="M599.495 835.436c15.84 30.036 48.235 63.334 47.251 101.697-.838 32.782-38.42 52.939-58.618 78.546-16.678 21.129-18.083 44.716-20.822 68.465-2.198 19.051-4.07 38.139-7.655 57.2-2.641 14.047-5.925 37.262-20.121 45.963-12.763 7.823-34.306-2.297-45.48-7.355-16.307-7.386-31.441-16.501-46.772-25.207-26.934-15.289-53.316-28.121-85.73-33.992-32.558-5.895-65.72-6.559-99.397-7.606-26.346-.821-52.705-1.985-78.619-4.843-19.302-2.125-46.467-3.801-60.218-16.363-10.883-9.936 9.07-42.56 14.45-53.369 11.08-22.232 23.585-43.994 36.159-65.686 15.332-26.436 32.282-51.057 43.975-78.753 20.92-49.523 32.423-105.018 67.287-150.024 21.027-27.145 50.045-44.121 81.702-54.833 12.535-4.242 21.63 9.078 26.765 16.918 8.533 13.024 14.943 27.236 22.911 40.567 7.462 12.478 16.88 23.345 25.678 34.953 8.911 11.762 15.57 24.862 23.645 37.085 5.009 7.59 10.573 16.536 20.006 20.344 9.762 3.943 22.286 2.016 33.094.002 20.279-3.82 69.328-24.904 80.509-3.709Z"/><path d="M590 854.45c16.542 26.717 37.827 59.706 31.053 93.667-5.535 27.766-34.863 45.698-51.263 69.22-13.642 19.563-12.787 41.105-14.696 62.27-1.57 17.362-3.151 34.802-6.616 52.161-2.628 13.165-5.724 30.816-18.035 40.245-10.527 8.06-29.665.094-39.097-3.911-16.065-6.83-30.661-15.927-45.122-24.88-23.66-14.65-46.744-31.228-75-39.32-27.447-7.84-55.862-7.283-85.246-7.746-22.507-.357-45.035-1.087-67.134-3.526-16.967-1.867-37.816-3.764-50.385-13.52-10.857-8.406-.542-28.19 4.077-39.331 7.632-18.393 17.151-36.334 26.448-54.238 10.035-19.317 22.152-38.35 31.555-57.769 19.764-40.855 31.954-81.975 61.759-119.499 19.301-24.305 47.808-51.042 78.421-61.404 22.017-7.45 37.613 33.196 45.095 45.122 12.25 19.494 28.088 38.715 46.605 53.6 15.887 12.748 39.142 8.887 60.118 4.355 13.142-2.834 26.414-6.986 39.697-8.381 15.378-1.612 20.832 1.685 27.766 12.884Z"/><path d="M578.706 873.528c12.88 23.072 24.43 51.918 16.369 80.028-7.07 24.625-31.456 40.67-44.13 63.084-9.893 17.49-7.862 38.297-9.431 56.538-1.915 22.303-1.154 61.67-22.574 78.848-19.927 15.976-60.867-14.67-74.212-23.326-21.122-13.7-40.91-30.157-64.17-41.215-20.03-9.519-41.764-10.255-64.88-11.148-29.48-1.16-72.605.934-95.323-16.071-16.931-12.67 4.285-51.194 10.207-67.466 6.2-17.003 8.636-35.071 15.382-51.8 10.647-26.396 34.313-54.057 54.249-75.961 19.379-21.302 45.446-46.84 73.075-57.706 18.158-7.144 31.596 15.016 40.322 24.923 12.448 14.065 25.981 25.66 46.39 30.157 20.775 4.579 41.851 1.945 63.608-1.766 11.16-1.922 23.527-4.975 34.65-4.009 12.257.987 15.515 8.023 20.468 16.89Z"/><path d="M568.351 895.57c8.727 20.964 12.566 45.64 2.738 68.84-8.186 19.325-28.015 33.04-35.48 52.412-5.916 15.338-4.799 32.872-6.49 48.487-2.056 19.127-2.777 51.323-21.937 65.791-18.706 14.108-49.847-7.799-62.869-16.17-19.078-12.281-36.359-26.548-55.524-38.736-15.022-9.569-30.075-13.456-48.894-15.744-22.094-2.693-51.67-3.51-68.336-16.406-12.038-9.35-3.799-35.951-2.371-49.295.95-8.96 1.512-17.888.202-26.605-1.02-6.788-3.267-12.518-.926-19.712 5.898-18.1 30.399-30.536 45.67-42.159 20.282-15.433 41.617-32.243 64.88-43.597 14.291-6.992 26.616 1.294 38.383 5.808 13.907 5.338 30.78 6.26 46.026 8.271 20.13 2.67 40.155 1.143 60.845-.497 9.333-.738 20.071-2.133 28.71.608 9.002 2.823 12.221 11.138 15.373 18.704Z"/><path d="M555.39 917.574c4.56 18.792 2.666 39.408-7.3 58.29-7.633 14.49-20.866 26.441-25.378 41.873-4.203 14.384-5.137 29.107-7.505 43.584-2.513 15.308-5.294 40.293-21.509 51.052-17.476 11.592-40.732-2.55-53.613-10.39-16.276-9.91-30.553-21.945-45.955-32.805-11.552-8.064-24.605-14.383-38.722-18.747-14.827-4.624-33.37-7.21-44.283-17.59-9.658-9.198-6.323-26.701-9.562-38.809-3.459-12.937-11.92-24.477-6.82-39.01 10.515-29.973 61.632-46.94 89.687-59.394 27.672-12.309 55.697-8.595 83.594-5.588 18.426 1.983 36.929 2.432 55.49 3.688 18.924 1.287 27.862 7.309 31.876 23.846Z"/><path d="M541.315 933.66c2.236 29.017-18.716 53.837-29.644 81.122-8.938 22.333-6.831 59.832-31.287 75.292-27.767 17.55-63.927-17.972-81.36-30.2-19.342-13.56-46.213-19.862-63.027-35.77-8.831-8.347-9.043-19.544-11.005-30.8-2.158-12.36-5.074-24.695.112-37.582 10.211-25.362 44.977-39.973 69.768-51.075 25.663-11.495 53.74-9.002 79.532-5.568 27.346 3.622 64.608 4.828 66.911 34.58Z"/><path d="M529.941 947.618c-1.949 22.207-15.952 45.532-26.486 66.411-8.797 17.414-13.65 47.01-33.86 57.552-23.75 12.396-49.224-6.195-65.38-17.367-15.893-10.97-36.339-20.998-48.603-35.237-12.783-14.83-7.956-44.158.85-62.228 9.822-20.153 33.172-35.97 55.26-44.708 23.121-9.166 48.872-6.887 71.134-2.635 23.799 4.544 49.368 12.425 47.085 38.212Z"/><path d="M518.107 955.92c-2.772 18.999-13.267 38.53-23.106 56.153-7.592 13.605-17.954 35.656-34.139 42.958-17.803 8.035-38.367 1.946-50.976-7.89-12.433-9.703-26.61-22.466-33.576-35.944-15.162-29.352 17.041-83.112 53.223-95.208 34.306-11.468 94.111 2.074 88.574 39.932Z"/><path d="M507.08 962.971c-4.463 24.918-23.614 65.87-51.994 78.697-32.576 14.718-53.971-12.726-59.204-36.975-5.36-24.74 18.502-73.973 50.645-82.333 31.37-8.16 65.837 11.063 60.554 40.611Z"/><path d="M495.078 971.97c-3.802 20.97-18.075 51.207-41.769 61.996-28.233 12.85-38.832-13.617-39.291-32.695-.466-19.813 16.885-61.356 43.82-67.393 26.2-5.853 40.882 17.992 37.24 38.091Z"/><path d="M483.18 978.967c-2.14 14.835-13.7 37.344-30.505 45.041-20.544 9.398-25.41-13.302-24.339-25.71 1.269-14.761 13.78-44.786 33.179-49.015 19.1-4.164 23.434 17.458 21.664 29.684ZM-185.21-37.225c58.964-10.388 116.948-11.421 173.35-14.524 82.418-4.528 164.6-7.332 240.542 1.074 40.712 4.51 95.497 7.849 113.344 44.595 6.526 13.434 4.058 36.082 5.65 53.387 2.196 23.861 5.118 47.217 7.994 70.582 5.786 46.852 11.86 93.516 15.87 141.634 1.928 23.174.741 49.434 4.735 71.106 2.33 12.67 13.896 16.991 22.354 23.158 19.596 14.282 39.877 27.694 59.939 41.377 24.535 16.74 49.221 33.403 71.649 52.8 10.112 8.752 38.383 25.86 30.368 47.45-4.319 11.625-24.906 22.222-34.439 27.12-17.513 9.006-34.826 15.882-51.942 22.705-39.584 15.78-79.056 29.37-119.579 49.988-20.828 10.602-46.928 23.026-60.44 49.583-13.653 26.82-21.253 53.46-34.564 80.427-15.316 31.035-34.964 60.325-54.691 90.41-14.577 22.237-24.501 44.362-35.312 66.991-11.951 25.011-23.866 50.345-38.276 75.258-9.517 16.457-27.065 45.72-42.596 48.441-22.077 3.877-34.908-24.129-44.812-38.557-13.693-19.931-26.07-41.219-39.294-61.629-9.595-14.825-18.9-30.097-31.76-41.334-20.73-18.115-44.429-32.709-67.845-47.39-43.36-27.187-87.816-52.44-127.432-84.52-34.708-28.106-53.283-169.167-61.206-197.772-15.811-57.099-33.746-113.613-40.384-177.924-1.79-17.405-6.157-42.202 4.857-66.125 6.783-14.744 13.937-20.651 12.97-34.475-1.32-18.86-10.742-33.474-17.941-47.265-11.596-22.207-24.29-43.34-36.561-64.883-24.848-43.533-47.947-88.72-71.633-133.38-7.16-13.502-19.548-25.237-23.33-41.87-2.453-10.7 3.61-16.761 15.282-20.549 20.482-6.65 39.57-4.092 56.821-3.375 25.275 1.054 49.786 3.582 74.182 6.264 24.397 2.682 48.618 5.751 73.04 8.419 16.114 1.784 32.687 6.044 51.09 2.803Z"/><path d="M-166.457-8.944c60.778-9.014 119.32-7.998 176.018-7.345 72.582.815 144.386 4.637 208.714 20.497 37.762 9.321 81.53 21.292 97.569 58.658 5.72 13.332 3.61 31.175 3.722 48.521.115 19.787 1.411 38.881 2.846 57.806 2.954 38.953 6.739 77.331 11.353 115.133 2.409 20.067 2.948 44.764 12.605 58.87 7.675 11.217 22.713 16.155 33.91 23.115 20.162 12.537 40.378 25 60.318 37.828 23.006 14.804 45.929 29.835 66.81 47.356 11.638 9.765 34.66 22.77 31.305 43.984-2.929 18.51-66.384 42.65-78.065 47.539-36.475 15.264-72.655 28.624-109.641 46.582-21.828 10.575-48.387 23.428-70.077 43.307-18.482 16.945-30.717 43.398-41.868 63.867-13.974 25.634-29.4 51.445-42.33 77.147-11.523 22.898-18.817 45.702-27.22 68.196-9.243 24.744-18.663 49.875-31.019 75.03-7.616 15.467-20.429 41.323-36.408 49.006-18.437 8.848-31.823-17.53-38.79-26.562-14.092-18.38-26.39-38.696-39.232-58.372-21.335-32.673-42.269-63.09-73.24-84.946-40.34-28.452-83.427-53.432-124.38-81.11-15.135-10.208-31.507-19.346-44.563-32.143-7.481-7.341-9.856-17.033-6-31.438 5.258-19.66-3.099-39.67-6.703-56.314-5.625-25.944-12.184-51.148-18.572-76.473-14.011-55.606-29.492-110.8-35.313-172.757-1.845-19.598-4.223-41.71 2.492-66.184 3.742-13.65 12.713-22.452 18.688-35.341 7.836-16.973 1.249-32.83-2.034-43.117-6.33-19.863-15.59-37.238-25.049-54.15-21.403-38.26-46.387-72.253-73.583-104.41-6.384-7.524-32.065-36.478 2.746-47.603 38.467-12.298 73.743-5.026 105.987-3.4 29.025 1.493 57.317 3.922 89.004-.777Z"/><path d="M-126.53 33.629c55.408-6.362 107.725-2.216 158.297 2.174 61.367 5.327 121.371 14.37 173.81 34.681 32.936 12.767 66.975 29.648 81.634 64.625 10.014 23.88 2.874 60.737 4.097 91.063 1.224 30.325 3.957 60.075 9.416 87.448 3.388 16.989 7.51 34.676 19.951 42.87 30.246 19.933 63.544 36.026 94.17 55.55 20.277 12.894 40.288 26.195 58.472 41.79 10.969 9.4 27.42 20.606 28.296 39.838.963 21.265-143.05 79.548-158.205 86.962-37.997 18.592-86.814 44.57-118.468 89.136-30.258 42.605-43.656 81.857-56.81 123.786-7.5 23.837-23.72 90.61-51.218 107.244-15.715 9.51-27.903-8.058-34.74-15.11-13.476-13.899-25.192-29.802-37.325-45.198-17.714-22.42-33.875-47.976-53.845-67.802-13.908-13.802-30.81-24.091-46.02-36.338-21.807-17.565-43.315-35.5-64.777-53.49-18.019-15.108-36.697-29.717-52.215-47.783-9.664-11.21-14.537-22.76-12.149-42.31 2.075-17.007-3.233-32.247-6.427-46.715-5.279-23.89-11.454-47.072-17.437-70.393-12.523-48.83-25.802-97.462-32.252-151.036-2.95-24.449-10.945-61.809 11.99-96.722 8.27-12.59 11.49-18.315 10.85-29.799-.91-16.298-7.684-28.8-14.261-40.224-15.331-26.636-39.303-43.92-54.677-70.427-6.227-10.836-11.941-27.968 12.405-36.883 28.445-10.448 55.017-7.336 79.593-8.12 12.265-.386 24.426-.199 37.443-2.257 10.011-1.6 20.604-5.469 30.403-6.56Z"/><path d="M-77.209 89.513c48.402-2.4 93.666 4.011 136.925 11.78 48.029 8.65 94.32 21.088 134.024 42.582 27.427 14.826 53.868 34.059 65.93 66.426 7.626 20.472 2.832 46.655 3.08 72.069.346 38.39 6.119 73.259 32.52 87.29a1047.35 1047.35 0 0 1 86.01 51.148c16.74 11.072 33.236 22.568 47.933 36.2 9.298 8.614 21.066 19.969 22.79 35.32 2.3 20.552-110.222 71.646-125.715 79.827-38.424 20.289-74.54 44.979-111.378 78.835-30.058 27.63-40.558 59.98-49.792 91.377-5.727 19.503-15.78 72.083-37.262 86.035-11.829 7.71-22.508-1.833-28.91-6.135-12.198-8.205-22.774-18.512-33.78-28.189-16.226-14.318-38.07-23.916-51.545-41.34-29.874-38.606-60.598-75.97-92.918-112.022-17.82-19.87-36.004-39.542-51.169-62.315-5.443-8.177-11.017-16.683-13.751-27.423-1.764-6.904.377-14.498.372-22.156-.051-36.478-14.21-66.692-22.917-97.096-11.576-40.417-23.53-80.657-31.642-123.897-4.265-22.744-12.56-51.625-2.732-83.035 2.968-9.49 8.836-14.254 12.637-22.611 4.39-9.636.05-17.083-2.197-22.577-5.096-12.476-37.345-51.215 4.316-66.457 19.858-7.249 37.943-7.571 56.435-10.933 6.697-1.22 13.325-2.53 20.583-5.614 12.158-5.181 21.088-6.523 32.153-7.09Z"/><path d="M-24.585 150.598c88.253 4.197 175.54 29.05 231.547 83.283 18.62 18.041 35.375 41.5 36.218 76.03.48 20.38-2.36 40.648 6.43 54.988 6.348 10.35 18.82 14.533 28.814 20.486 14.479 8.62 28.804 17.445 42.881 26.598 17.43 11.375 34.61 23.17 50.177 36.905 11.122 9.818 27.478 22.145 27.994 41.967.627 23.653-82.881 64.6-96.621 72.818-33.302 19.921-62.791 41.471-93.055 73.472-8.826 9.318-19.684 17.4-27.462 27.696-7.935 10.521-11.985 22.33-15.428 32.866-4.521 13.803-10.831 50.113-25.24 59.742-7.96 5.315-16.968-.498-22.48-2.469-10.356-3.681-19.764-8.77-29.696-13.074-16.866-7.284-40.668-5.802-54.178-17.33-36.342-30.981-56.334-83.251-83-124.661-15.836-24.642-32.352-48.742-45.877-75.7-4.277-8.532-8.67-17.335-10.887-27.727-1.548-7.252.801-16.04-.066-23.456-3.304-28.466-13.954-52.743-22.557-77.068-11.146-31.606-22.702-62.86-32.98-95.222-6.445-20.284-17.724-42.67-15.96-69.185 1.287-19.362 10.213-18.237 24.095-26 7.081-3.957 11.21-10.162 17.594-15.965 9.114-8.284 18.736-11.77 27.545-14.775 12.16-4.159 24.878-5.397 37.618-12.25 4.488-2.411 8.086-7 11.901-9.18 11.11-6.35 24.373-3.183 32.673-2.79Z"/><path d="M22.19 212.405c65.647 10.791 127.434 36.7 169.447 81.918 14.615 15.736 26.806 34.671 32.462 59.157 2.587 11.123 2.921 21.459 10.33 28 17.192 15.172 37.191 26.994 55.505 40.775 13.107 9.86 26.042 20.063 37.177 32.298 7.448 8.176 17.683 19.033 16.638 34.558-1.545 22.591-59.446 56.754-74.114 67.269-24.322 17.441-50.625 37.427-69.198 65.358-5.677 8.543-10.029 16.628-16.41 24.861-5.467 7.088-11.127 13.135-15.21 20.836-5.068 9.545-8.277 28.125-16.88 33.722-5.87 3.826-11.035.045-15.682-.973-7.538-1.65-15.628-2.36-24.189-2.12-9.032.275-19.297 3.69-27.875 3.013-13.915-1.109-24.397-8.642-33.78-16.284-37.429-30.501-64.055-75.316-88.735-119.615-12.853-23.067-25.403-46.723-34.521-73.307-2.767-8.074-6.272-16.77-5.945-27.277.196-6.547 2.215-13.315 1.18-19.199-8.863-50.241-35.638-87.916-52.195-132.426-4.309-11.586-30.127-73.402 12.653-77.24 25.992-2.335 46.57 3.7 75.496-4.864 8.802-2.596 15.437-5.273 24.275-12.954 5.872-5.121.915-4.126 9.464-7.528 10.315-4.058 22.457.766 30.106 2.022Z"/><path d="M56.08 265.485c69.504 21.719 126.01 65.833 164.454 127.605 9.695 15.567 24.615 25.805 37.29 38.03 12.328 11.862 37.794 28.573 31.775 55.68-4.361 19.65-36.027 43.276-51.328 56.817-19.494 17.25-39.101 35.502-49.315 59.316-5.982 13.948-10.334 28.31-15.997 42.34-2.702 6.701-5.976 17.674-11.507 21.615-9.132 6.499-22.925 1.178-31.436.84-27.196-1.084-47.765-12.396-65.821-27.164-33.348-27.28-59.973-63.217-83.283-101.588-10.723-17.656-21.363-35.844-28.309-57.065-3.933-12.005-1.693-27.208-4.633-39.678-9.458-40.167-28.205-72.718-39.46-111.557-3.255-11.244-17.125-51.132 13.448-60.163 29.597-8.741 47.533 9.67 76.724 2.539 3.323-.832 7.365-1.775 11.079-4.464 2.214-1.613 4.42-6.31 5.784-7.143 14.642-9.2 31.717 1.28 40.536 4.04Z"/><path d="M80.447 306.664c32.656 14.825 61.631 35.407 89.417 57.175 15.188 11.898 33.126 23.425 41.963 42.507 5.419 11.733 10.98 22.66 18.006 32.977 7.557 11.103 21.877 26.324 14.756 47.562-5.323 15.87-28.727 38.399-40.892 53.084-13.338 16.11-21.34 29.585-24.71 46.114-2.128 10.404-6.21 51.12-14.433 57.153-7.832 5.749-20.897-2.977-27.69-5.336-21.487-7.435-40.02-18.972-56.654-32.985-25.77-21.694-47.94-48.03-66.659-77.594-7.724-12.242-15.7-24.9-20.025-40.364-2.908-10.42-1.63-23.683-4.36-34.23-7.799-30.227-20.471-56.725-28.125-87.27-2.449-9.812-12.71-38.963 7.9-54.39 17.204-12.884 35.102-6.55 50.724-11.87 26.616-9.101 42.84-.686 60.782 7.467Z"/><path d="M89.212 330.33c25.191 12.722 48.768 28.456 70.6 45.97 14.088 11.304 29.19 22.935 38.137 40.053 4.496 8.596 4.841 20.463 7.348 30.758 2.586 10.594 7.252 23.86.635 37.99-6.219 13.279-20.31 28.59-28.706 43.875-7.444 13.566-8.887 24.502-10.542 36.405-1.068 7.6-3.213 42.505-8.994 45.913-6.193 3.649-15.323-4.449-20.839-7.718a260 260 0 0 1-42.402-31.131c-17.716-16.131-34.013-34.306-46.768-55.906-9.054-15.315-9.526-34.717-14.786-52.924-6.792-23.616-16.001-45.396-21.811-69.919-2.896-12.218-8.117-29.15.393-47.747 3.256-7.131 13.93-23.33 20.4-27.858 7.777-5.444 17.783-2.32 22.832-1.247 12.634 2.705 23.795 8.08 34.503 13.487Z"/></g></g></g></svg>