<svg id="Layer_1" data-name="Layer 1" xmlns="http://www.w3.org/2000/svg" viewBox="0 0 202.67 133.11"><defs><clipPath id="clip-path"><path style="fill:none" d="M0 0h202.67v133.11H0z"/></clipPath><style>.cls-3{fill:#4693cf}.cls-5{fill:#1062a1}.cls-6{fill:#7f7f80}.cls-7{fill:#2f77bc}.cls-8{fill:#ababab}.cls-9{fill:#173d6b}</style></defs><g style="clip-path:url(#clip-path)"><path class="cls-3" d="M12.85 19H6.12A6.13 6.13 0 0 1 0 12.85V6.12A6.12 6.12 0 0 1 6.12 0h6.73A6.13 6.13 0 0 1 19 6.12v6.73A6.14 6.14 0 0 1 12.85 19"/><path d="M104.7 0H98a6.12 6.12 0 0 0-6.12 6.12v6.73A6.13 6.13 0 0 0 98 19h6.73a6.13 6.13 0 0 0 6.12-6.13V6.12A6.12 6.12 0 0 0 104.7 0" style="fill:#bcbcbc"/><path class="cls-3" d="M127.66 19h-6.73a6.13 6.13 0 0 1-6.12-6.13V6.12A6.12 6.12 0 0 1 120.93 0h6.73a6.12 6.12 0 0 1 6.12 6.12v6.73a6.13 6.13 0 0 1-6.12 6.15"/><path class="cls-5" d="M35.81 65.68H6.12A6.12 6.12 0 0 1 0 59.56v-6.73a6.13 6.13 0 0 1 6.12-6.13h29.69a6.13 6.13 0 0 1 6.13 6.13v6.73a6.12 6.12 0 0 1-6.13 6.12M104.7 65.68H98a6.12 6.12 0 0 1-6.12-6.12v-6.73A6.13 6.13 0 0 1 98 46.7h6.73a6.13 6.13 0 0 1 6.12 6.13v6.73a6.12 6.12 0 0 1-6.12 6.12"/><path class="cls-6" d="M58.77 46.7h-6.72a6.13 6.13 0 0 0-6.13 6.13v6.73a6.12 6.12 0 0 0 6.13 6.12h6.72a6.12 6.12 0 0 0 6.13-6.12v-6.73a6.13 6.13 0 0 0-6.13-6.13M127.66 46.7h-6.73a6.13 6.13 0 0 0-6.12 6.13v6.73a6.12 6.12 0 0 0 6.12 6.12h6.73a6.12 6.12 0 0 0 6.12-6.12v-6.73a6.13 6.13 0 0 0-6.12-6.13"/><path class="cls-7" d="M70.26 42.33h-6.73a6.13 6.13 0 0 1-6.13-6.13v-6.72a6.13 6.13 0 0 1 6.13-6.13h6.73a6.12 6.12 0 0 1 6.12 6.13v6.72a6.12 6.12 0 0 1-6.12 6.13M93.22 42.33h-6.73a6.13 6.13 0 0 1-6.13-6.13v-6.72a6.13 6.13 0 0 1 6.13-6.13h6.73a6.12 6.12 0 0 1 6.12 6.13v6.72a6.12 6.12 0 0 1-6.12 6.13"/><path class="cls-8" d="M24.33 23.35H6.12A6.12 6.12 0 0 0 0 29.48v6.72a6.12 6.12 0 0 0 6.12 6.13h18.21a6.13 6.13 0 0 0 6.13-6.13v-6.72a6.13 6.13 0 0 0-6.13-6.13M116.18 23.35h-6.73a6.12 6.12 0 0 0-6.12 6.13v6.72a6.12 6.12 0 0 0 6.12 6.13h6.73a6.12 6.12 0 0 0 6.12-6.13v-6.72a6.12 6.12 0 0 0-6.12-6.13"/><path class="cls-7" d="M162.1 42.33h-6.73a6.12 6.12 0 0 1-6.12-6.13v-6.72a6.12 6.12 0 0 1 6.12-6.13h6.73a6.12 6.12 0 0 1 6.12 6.13v6.72a6.12 6.12 0 0 1-6.12 6.13M196.54 42.33h-18.21a6.12 6.12 0 0 1-6.12-6.13v-6.72a6.12 6.12 0 0 1 6.12-6.13h18.21a6.12 6.12 0 0 1 6.13 6.13v6.72a6.12 6.12 0 0 1-6.13 6.13"/><path class="cls-5" d="M196.54 65.68h-29.69a6.12 6.12 0 0 1-6.12-6.12v-6.73a6.13 6.13 0 0 1 6.12-6.13h29.69a6.13 6.13 0 0 1 6.13 6.13v6.73a6.12 6.12 0 0 1-6.13 6.12"/><path class="cls-9" d="M0 70.31h23.59q5.9 0 8.56 2.67c1.78 1.78 2.66 4.63 2.66 8.56v5a14.14 14.14 0 0 1-1.54 7.24 7.61 7.61 0 0 1-4.91 3.43l7 12.34h-11L18 97.82h-7.88v11.78H0Zm24.7 11.23q0-3.37-3.37-3.37H10.12V90h11.22q3.38 0 3.37-3.37ZM75.79 98.94q0 5.9-2.67 8.56c-1.77 1.78-4.63 2.67-8.56 2.67h-14q-5.89 0-8.56-2.67t-2.7-8.56V81c0-3.93.89-6.79 2.67-8.56s4.63-2.67 8.56-2.67h14c3.93 0 6.79.89 8.56 2.67s2.67 4.63 2.67 8.56ZM65.69 81c0-2.25-1.13-3.37-3.37-3.37h-9.54q-3.37 0-3.37 3.37v18q0 3.38 3.37 3.37h9.54c2.24 0 3.37-1.12 3.37-3.37ZM115.09 87.71l-7.86 14.04h-7.86l-7.86-14.04v21.9h-10.1v-39.3h10.66l11.23 20.77 11.22-20.77h10.67v39.3h-10.1v-21.9zM167.29 98.94q0 5.9-2.67 8.56c-1.77 1.78-4.63 2.67-8.56 2.67H142q-5.9 0-8.56-2.67t-2.67-8.56V81c0-3.93.89-6.79 2.67-8.56s4.63-2.67 8.56-2.67h14c3.93 0 6.79.89 8.56 2.67s2.67 4.63 2.67 8.56Zm-10.1-18c0-2.25-1.13-3.37-3.37-3.37h-9.54q-3.37 0-3.37 3.37v18q0 3.38 3.37 3.37h9.54c2.24 0 3.37-1.12 3.37-3.37ZM202.66 78.17l-19.65 23.58h19.65v7.86h-32v-7.86l19.65-23.58h-19.65v-7.86h32v7.86z"/><path class="cls-8" d="M33.51 132.91h-3.86l-4.86-8.52v8.52h-3.65v-14.19h3.85l4.87 8.51v-8.51h3.65v14.19zM53.68 132.91H42.43v-14.19h11.25v2.83h-7.6v2.74h5.98v2.84h-5.98v2.94h7.6v2.84zM68.68 132.91h-3.65v-11.36h-4.26v-2.83h12.17v2.83h-4.26v11.36zM91.19 118.72l2.43 9.12 2.13-9.12h3.95l-3.85 14.19H92l-2.44-8.82-2.43 8.82h-3.85l-3.85-14.19h3.95l2.13 9.12 2.43-9.12h3.25zM120 129.05a3.49 3.49 0 0 1-4.06 4.06h-5.07a3.48 3.48 0 0 1-4-4.06v-6.48a4.24 4.24 0 0 1 1-3.09 4.19 4.19 0 0 1 3.09-1h5.07a4.19 4.19 0 0 1 3.09 1 4.24 4.24 0 0 1 1 3.09Zm-3.65-6.48a1.08 1.08 0 0 0-1.22-1.22h-3.45a1.07 1.07 0 0 0-1.21 1.22v6.48a1.07 1.07 0 0 0 1.21 1.22h3.45a1.08 1.08 0 0 0 1.22-1.22ZM128.49 118.72H137a3.48 3.48 0 0 1 4.05 4v1.83a5.12 5.12 0 0 1-.55 2.61 2.76 2.76 0 0 1-1.78 1.24l2.54 4.46h-4l-2.26-4.21h-2.84v4.26h-3.65Zm8.92 4a1.07 1.07 0 0 0-1.21-1.22h-4.06v4.26h4.06a1.07 1.07 0 0 0 1.21-1.21ZM153.23 132.91h-3.65v-14.19h3.65v5.57h1.82l3.16-5.57h3.86l-3.98 6.99 3.96 7.2h-3.86l-3.14-5.78h-1.82v5.78zM172.81 123.18a1.07 1.07 0 0 0 1.22 1.21h3.65a4.06 4.06 0 0 1 2.92.92 3.88 3.88 0 0 1 .93 2.87v1a3.88 3.88 0 0 1-.93 2.87 4.06 4.06 0 0 1-2.92.92h-5.4a16.24 16.24 0 0 1-2.94-.27v-2.59h7.53a1.06 1.06 0 0 0 .74-.26.91.91 0 0 0 .27-.7v-1.72h-4.66a4.28 4.28 0 0 1-3.1-1 4.24 4.24 0 0 1-1-3.09v-.61a4.24 4.24 0 0 1 1-3.09 4.28 4.28 0 0 1 3.1-1h7.11v2.83H174a1.08 1.08 0 0 0-1.22 1.22Z"/></g></svg>